<svg width="1440" height="5117" viewBox="0 0 1440 5117" fill="none" xmlns="http://www.w3.org/2000/svg">
<path d="M898.5 43.0002C999 41.4997 1200.86 61.7675 1077.66 217.503C923.648 412.171 1469.28 564.367 1381.27 412.172C1293.27 259.976 624.432 433.408 1165.66 691.787C1598.64 898.489 747.638 952.525 268.013 953.705C100.149 961.375 -157.491 1038.31 154.856 1284.71C545.29 1592.7 1251.71 1723.69 1208.68 1911.32C1165.66 2098.94 -378.357 2915 154.856 2915C1328 2915 259.144 3386.89 720 3547C860.545 3595.83 1454.95 3513.17 1424 3823C1366.34 4400.28 -52.8 4126.2 104 4443C300 4839 1424 4987 1454 5123" stroke="#2BB32A" stroke-width="1.5" stroke-linecap="square"/>
<g filter="url(#filter0_f_1_8)">
<circle cx="890" cy="53" r="246" fill="#2BB32A"/>
</g>
<g filter="url(#filter1_f_1_8)">
<circle cx="1316" cy="1959" r="246" fill="#2BB32A"/>
</g>
<g filter="url(#filter2_f_1_8)">
<circle cx="187" cy="3908" r="246" fill="#2BB32A"/>
</g>
<g filter="url(#filter3_f_1_8)">
<circle cx="235" cy="3943" r="246" fill="#2BB32A"/>
</g>
<g filter="url(#filter4_f_1_8)">
<circle cx="1329" cy="4958" r="193" fill="#2BB32A"/>
</g>
<path d="M522.549 573.889C522.851 572.972 524.148 572.972 524.449 573.889L529.158 588.204C529.257 588.506 529.493 588.743 529.795 588.842L544.111 593.55C545.028 593.852 545.028 595.149 544.111 595.45L529.795 600.158C529.493 600.258 529.257 600.494 529.158 600.796L524.449 615.112C524.148 616.028 522.851 616.028 522.549 615.112L517.841 600.796C517.742 600.494 517.505 600.258 517.204 600.158L502.888 595.45C501.971 595.149 501.971 593.852 502.888 593.55L517.204 588.842C517.505 588.743 517.742 588.506 517.841 588.204L522.549 573.889Z" fill="#2BB32A"/>
<path d="M1066.87 199.393C1067 198.437 1068.28 198.204 1068.74 199.052L1075.94 212.292C1076.09 212.571 1076.37 212.762 1076.68 212.805L1091.61 214.872C1092.56 215.004 1092.8 216.28 1091.95 216.741L1078.71 223.938C1078.43 224.09 1078.24 224.365 1078.19 224.68L1076.13 239.608C1076 240.564 1074.72 240.796 1074.26 239.948L1067.06 226.708C1066.91 226.429 1066.63 226.239 1066.32 226.195L1051.39 224.129C1050.44 223.997 1050.2 222.721 1051.05 222.26L1064.29 215.062C1064.57 214.91 1064.76 214.635 1064.81 214.321L1066.87 199.393Z" fill="#2BB32A"/>
<path d="M1165.27 853.592C1166.05 853.027 1167.1 853.788 1166.81 854.708L1163.06 866.419C1162.96 866.722 1163.01 867.052 1163.2 867.31L1170.4 877.28C1170.96 878.062 1170.2 879.112 1169.28 878.817L1157.57 875.067C1157.27 874.97 1156.94 875.023 1156.68 875.209L1146.71 882.409C1145.93 882.974 1144.88 882.212 1145.17 881.293L1148.92 869.581C1149.02 869.279 1148.97 868.948 1148.78 868.691L1141.58 858.721C1141.02 857.938 1141.78 856.889 1142.7 857.183L1154.41 860.933C1154.71 861.03 1155.04 860.977 1155.3 860.791L1165.27 853.592Z" fill="#2BB32A"/>
<path d="M853.043 1465.38C852.704 1464.47 853.714 1463.66 854.524 1464.19L862.181 1469.16C862.447 1469.33 862.78 1469.37 863.077 1469.26L871.623 1466.04C872.526 1465.7 873.339 1466.71 872.813 1467.52L867.843 1475.18C867.67 1475.45 867.634 1475.78 867.745 1476.08L870.957 1484.62C871.297 1485.53 870.286 1486.34 869.477 1485.81L861.82 1480.84C861.553 1480.67 861.221 1480.63 860.923 1480.75L852.378 1483.96C851.475 1484.3 850.662 1483.29 851.188 1482.48L856.158 1474.82C856.331 1474.55 856.367 1474.22 856.255 1473.92L853.043 1465.38Z" fill="#2BB32A"/>
<path d="M304.433 3052.98C305.205 3052.4 306.268 3053.15 305.991 3054.07L304.279 3059.78C304.188 3060.08 304.246 3060.41 304.437 3060.67L308.015 3065.43C308.595 3066.21 307.853 3067.27 306.928 3066.99L301.219 3065.28C300.915 3065.19 300.586 3065.25 300.332 3065.44L295.565 3069.02C294.793 3069.6 293.73 3068.85 294.007 3067.93L295.719 3062.22C295.81 3061.92 295.752 3061.59 295.561 3061.33L291.983 3056.57C291.403 3055.79 292.145 3054.73 293.07 3055.01L298.779 3056.72C299.083 3056.81 299.412 3056.75 299.666 3056.56L304.433 3052.98Z" fill="#2BB32A"/>
<path d="M440.422 1246.17C441.036 1245.42 442.244 1245.89 442.192 1246.85L441.872 1252.81C441.855 1253.12 441.989 1253.43 442.234 1253.63L446.834 1257.42C447.579 1258.04 447.108 1259.25 446.144 1259.19L440.192 1258.87C439.875 1258.86 439.569 1258.99 439.367 1259.24L435.576 1263.83C434.962 1264.58 433.754 1264.11 433.806 1263.14L434.126 1257.19C434.143 1256.88 434.009 1256.57 433.764 1256.37L429.164 1252.58C428.42 1251.96 428.89 1250.75 429.854 1250.81L435.806 1251.13C436.123 1251.14 436.429 1251.01 436.631 1250.76L440.422 1246.17Z" fill="#2BB32A"/>
<path d="M539.623 1945.42C539.549 1944.46 540.747 1943.96 541.377 1944.69L545.271 1949.21C545.478 1949.45 545.788 1949.58 546.104 1949.55L552.047 1949.1C553.009 1949.02 553.507 1950.22 552.777 1950.85L548.264 1954.74C548.023 1954.95 547.896 1955.26 547.92 1955.58L548.375 1961.52C548.449 1962.48 547.251 1962.98 546.621 1962.25L542.727 1957.74C542.52 1957.5 542.21 1957.37 541.894 1957.39L535.951 1957.85C534.988 1957.92 534.49 1956.72 535.221 1956.09L539.734 1952.2C539.974 1951.99 540.102 1951.68 540.078 1951.37L539.623 1945.42Z" fill="#2BB32A"/>
<path d="M153.499 2185.49C154.01 2184.63 155.331 2184.97 155.359 2185.97L155.798 2201.59C155.807 2201.91 155.965 2202.2 156.224 2202.39L168.094 2210.7C168.852 2211.24 168.544 2212.42 167.624 2212.52L153.207 2214.02C152.893 2214.06 152.612 2214.24 152.451 2214.51L144.479 2227.95C143.968 2228.81 142.648 2228.47 142.619 2227.47L142.18 2211.85C142.171 2211.53 142.014 2211.24 141.755 2211.05L129.884 2202.74C129.127 2202.2 129.434 2201.02 130.354 2200.92L144.771 2199.42C145.086 2199.38 145.366 2199.2 145.527 2198.93L153.499 2185.49Z" fill="#2BB32A"/>
<path d="M1220.18 2345.37C1220.22 2344.41 1221.47 2344.06 1222.01 2344.86L1231.02 2358.4C1231.2 2358.66 1231.49 2358.83 1231.81 2358.84L1248.05 2359.62C1249.01 2359.66 1249.36 2360.91 1248.55 2361.45L1235.02 2370.46C1234.76 2370.64 1234.59 2370.93 1234.58 2371.25L1233.8 2387.49C1233.75 2388.45 1232.5 2388.8 1231.97 2387.99L1222.96 2374.46C1222.78 2374.2 1222.49 2374.03 1222.17 2374.02L1205.93 2373.24C1204.97 2373.19 1204.62 2371.94 1205.42 2371.41L1218.96 2362.4C1219.22 2362.22 1219.38 2361.93 1219.4 2361.61L1220.18 2345.37Z" fill="#2BB32A"/>
<path d="M710.05 3301.89C710.352 3300.97 711.649 3300.97 711.95 3301.89L712.822 3304.54C712.922 3304.84 713.158 3305.08 713.46 3305.18L716.112 3306.05C717.029 3306.35 717.029 3307.65 716.112 3307.95L713.46 3308.82C713.158 3308.92 712.922 3309.16 712.822 3309.46L711.95 3312.11C711.649 3313.03 710.352 3313.03 710.05 3312.11L709.178 3309.46C709.079 3309.16 708.842 3308.92 708.541 3308.82L705.889 3307.95C704.972 3307.65 704.972 3306.35 705.889 3306.05L708.541 3305.18C708.842 3305.08 709.079 3304.84 709.178 3304.54L710.05 3301.89Z" fill="#2BB32A"/>
<path d="M817.914 2685.8C818.468 2685.01 819.709 2685.39 819.733 2686.35L819.801 2689.14C819.808 2689.46 819.966 2689.76 820.226 2689.94L822.513 2691.54C823.303 2692.09 822.928 2693.34 821.963 2693.36L819.173 2693.43C818.855 2693.44 818.56 2693.59 818.378 2693.85L816.776 2696.14C816.222 2696.93 814.981 2696.55 814.957 2695.59L814.889 2692.8C814.882 2692.48 814.724 2692.19 814.463 2692L812.177 2690.4C811.387 2689.85 811.762 2688.61 812.727 2688.58L815.517 2688.52C815.835 2688.51 816.13 2688.35 816.312 2688.09L817.914 2685.8Z" fill="#2BB32A"/>
<path d="M995.05 2046.89C995.352 2045.97 996.649 2045.97 996.95 2046.89L999.802 2055.56C999.902 2055.86 1000.14 2056.1 1000.44 2056.2L1009.11 2059.05C1010.03 2059.35 1010.03 2060.65 1009.11 2060.95L1000.44 2063.8C1000.14 2063.9 999.902 2064.14 999.802 2064.44L996.95 2073.11C996.649 2074.03 995.352 2074.03 995.05 2073.11L992.198 2064.44C992.099 2064.14 991.863 2063.9 991.561 2063.8L982.889 2060.95C981.972 2060.65 981.972 2059.35 982.889 2059.05L991.561 2056.2C991.863 2056.1 992.099 2055.86 992.198 2055.56L995.05 2046.89Z" fill="#2BB32A"/>
<path d="M1347.3 1873.31C1347.14 1872.36 1348.28 1871.75 1348.98 1872.41L1362.46 1885.27C1362.69 1885.49 1363.01 1885.59 1363.33 1885.53L1381.68 1882.31C1382.63 1882.15 1383.24 1883.29 1382.58 1883.99L1369.72 1897.47C1369.5 1897.7 1369.4 1898.02 1369.46 1898.34L1372.68 1916.69C1372.84 1917.64 1371.7 1918.25 1371 1917.59L1357.51 1904.73C1357.29 1904.51 1356.96 1904.41 1356.65 1904.47L1338.3 1907.69C1337.35 1907.85 1336.73 1906.71 1337.4 1906.01L1350.26 1892.53C1350.48 1892.3 1350.58 1891.98 1350.52 1891.66L1347.3 1873.31Z" fill="#2BB32A"/>
<path d="M209.049 3591.89C209.351 3590.97 210.648 3590.97 210.949 3591.89L216.771 3609.59C216.87 3609.89 217.107 3610.13 217.409 3610.23L235.111 3616.05C236.028 3616.35 236.028 3617.65 235.111 3617.95L217.409 3623.77C217.107 3623.87 216.87 3624.11 216.771 3624.41L210.949 3642.11C210.648 3643.03 209.351 3643.03 209.049 3642.11L203.227 3624.41C203.128 3624.11 202.892 3623.87 202.59 3623.77L184.888 3617.95C183.971 3617.65 183.971 3616.35 184.888 3616.05L202.59 3610.23C202.892 3610.13 203.128 3609.89 203.227 3609.59L209.049 3591.89Z" fill="#2BB32A"/>
<path d="M241.05 3941.89C241.352 3940.97 242.648 3940.97 242.95 3941.89L248.772 3959.59C248.871 3959.89 249.108 3960.13 249.409 3960.23L267.112 3966.05C268.028 3966.35 268.028 3967.65 267.112 3967.95L249.409 3973.77C249.108 3973.87 248.871 3974.11 248.772 3974.41L242.95 3992.11C242.648 3993.03 241.352 3993.03 241.05 3992.11L235.228 3974.41C235.129 3974.11 234.892 3973.87 234.591 3973.77L216.888 3967.95C215.972 3967.65 215.972 3966.35 216.888 3966.05L234.591 3960.23C234.892 3960.13 235.129 3959.89 235.228 3959.59L241.05 3941.89Z" fill="#2BB32A"/>
<path d="M895.05 4117.89C895.352 4116.97 896.648 4116.97 896.95 4117.89L902.772 4135.59C902.871 4135.89 903.108 4136.13 903.409 4136.23L921.112 4142.05C922.028 4142.35 922.028 4143.65 921.112 4143.95L903.409 4149.77C903.108 4149.87 902.871 4150.11 902.772 4150.41L896.95 4168.11C896.648 4169.03 895.352 4169.03 895.05 4168.11L889.228 4150.41C889.129 4150.11 888.892 4149.87 888.591 4149.77L870.888 4143.95C869.972 4143.65 869.972 4142.35 870.888 4142.05L888.591 4136.23C888.892 4136.13 889.129 4135.89 889.228 4135.59L895.05 4117.89Z" fill="#2BB32A"/>
<path d="M1308.05 3977.89C1308.35 3976.97 1309.65 3976.97 1309.95 3977.89L1310.82 3980.54C1310.92 3980.84 1311.16 3981.08 1311.46 3981.18L1314.11 3982.05C1315.03 3982.35 1315.03 3983.65 1314.11 3983.95L1311.46 3984.82C1311.16 3984.92 1310.92 3985.16 1310.82 3985.46L1309.95 3988.11C1309.65 3989.03 1308.35 3989.03 1308.05 3988.11L1307.18 3985.46C1307.08 3985.16 1306.84 3984.92 1306.54 3984.82L1303.89 3983.95C1302.97 3983.65 1302.97 3982.35 1303.89 3982.05L1306.54 3981.18C1306.84 3981.08 1307.08 3980.84 1307.18 3980.54L1308.05 3977.89Z" fill="#2BB32A"/>
<path d="M559.05 4789.89C559.352 4788.97 560.648 4788.97 560.95 4789.89L566.772 4807.59C566.871 4807.89 567.108 4808.13 567.409 4808.23L585.112 4814.05C586.028 4814.35 586.028 4815.65 585.112 4815.95L567.409 4821.77C567.108 4821.87 566.871 4822.11 566.772 4822.41L560.95 4840.11C560.648 4841.03 559.352 4841.03 559.05 4840.11L553.228 4822.41C553.129 4822.11 552.892 4821.87 552.591 4821.77L534.888 4815.95C533.972 4815.65 533.972 4814.35 534.888 4814.05L552.591 4808.23C552.892 4808.13 553.129 4807.89 553.228 4807.59L559.05 4789.89Z" fill="#2BB32A"/>
<path d="M503.05 4825.89C503.352 4824.97 504.648 4824.97 504.95 4825.89L510.772 4843.59C510.871 4843.89 511.108 4844.13 511.409 4844.23L529.112 4850.05C530.028 4850.35 530.028 4851.65 529.112 4851.95L511.409 4857.77C511.108 4857.87 510.871 4858.11 510.772 4858.41L504.95 4876.11C504.648 4877.03 503.352 4877.03 503.05 4876.11L497.228 4858.41C497.129 4858.11 496.892 4857.87 496.591 4857.77L478.888 4851.95C477.972 4851.65 477.972 4850.35 478.888 4850.05L496.591 4844.23C496.892 4844.13 497.129 4843.89 497.228 4843.59L503.05 4825.89Z" fill="#2BB32A"/>
<path d="M119.05 4989.89C119.352 4988.97 120.648 4988.97 120.95 4989.89L122.812 4995.55C122.911 4995.85 123.148 4996.09 123.45 4996.19L129.112 4998.05C130.028 4998.35 130.028 4999.65 129.112 4999.95L123.45 5001.81C123.148 5001.91 122.911 5002.15 122.812 5002.45L120.95 5008.11C120.648 5009.03 119.352 5009.03 119.05 5008.11L117.188 5002.45C117.089 5002.15 116.852 5001.91 116.55 5001.81L110.888 4999.95C109.972 4999.65 109.972 4998.35 110.888 4998.05L116.55 4996.19C116.852 4996.09 117.089 4995.85 117.188 4995.55L119.05 4989.89Z" fill="#2BB32A"/>
<path d="M1211.05 5025.89C1211.35 5024.97 1212.65 5024.97 1212.95 5025.89L1216.79 5037.57C1216.89 5037.87 1217.13 5038.11 1217.43 5038.21L1229.11 5042.05C1230.03 5042.35 1230.03 5043.65 1229.11 5043.95L1217.43 5047.79C1217.13 5047.89 1216.89 5048.13 1216.79 5048.43L1212.95 5060.11C1212.65 5061.03 1211.35 5061.03 1211.05 5060.11L1207.21 5048.43C1207.11 5048.13 1206.87 5047.89 1206.57 5047.79L1194.89 5043.95C1193.97 5043.65 1193.97 5042.35 1194.89 5042.05L1206.57 5038.21C1206.87 5038.11 1207.11 5037.87 1207.21 5037.57L1211.05 5025.89Z" fill="#2BB32A"/>
<path d="M1245.6 3571.33C1245.57 3570.36 1246.79 3569.92 1247.39 3570.68L1249.11 3572.88C1249.3 3573.13 1249.61 3573.27 1249.92 3573.27L1252.72 3573.19C1253.68 3573.16 1254.12 3574.38 1253.36 3574.97L1251.16 3576.69C1250.91 3576.89 1250.77 3577.19 1250.78 3577.51L1250.86 3580.3C1250.88 3581.26 1249.66 3581.7 1249.07 3580.94L1247.35 3578.75C1247.15 3578.49 1246.85 3578.35 1246.53 3578.36L1243.74 3578.44C1242.78 3578.47 1242.34 3577.25 1243.1 3576.65L1245.3 3574.93C1245.55 3574.74 1245.69 3574.43 1245.68 3574.12L1245.6 3571.33Z" fill="#2BB32A"/>
<path d="M218.55 893.889C218.851 892.972 220.148 892.972 220.45 893.889L222.188 899.174C222.287 899.476 222.524 899.713 222.825 899.812L228.111 901.55C229.028 901.852 229.028 903.149 228.111 903.45L222.825 905.189C222.524 905.288 222.287 905.524 222.188 905.826L220.45 911.112C220.148 912.029 218.851 912.029 218.55 911.112L216.811 905.826C216.712 905.524 216.475 905.288 216.174 905.189L210.888 903.45C209.971 903.149 209.971 901.852 210.888 901.55L216.174 899.812C216.475 899.713 216.712 899.476 216.811 899.174L218.55 893.889Z" fill="#2BB32A"/>
<defs>
<filter id="filter0_f_1_8" x="-156" y="-993" width="2092" height="2092" filterUnits="userSpaceOnUse" color-interpolation-filters="sRGB">
<feFlood flood-opacity="0" result="BackgroundImageFix"/>
<feBlend mode="normal" in="SourceGraphic" in2="BackgroundImageFix" result="shape"/>
<feGaussianBlur stdDeviation="400" result="effect1_foregroundBlur_1_8"/>
</filter>
<filter id="filter1_f_1_8" x="270" y="913" width="2092" height="2092" filterUnits="userSpaceOnUse" color-interpolation-filters="sRGB">
<feFlood flood-opacity="0" result="BackgroundImageFix"/>
<feBlend mode="normal" in="SourceGraphic" in2="BackgroundImageFix" result="shape"/>
<feGaussianBlur stdDeviation="400" result="effect1_foregroundBlur_1_8"/>
</filter>
<filter id="filter2_f_1_8" x="-859" y="2862" width="2092" height="2092" filterUnits="userSpaceOnUse" color-interpolation-filters="sRGB">
<feFlood flood-opacity="0" result="BackgroundImageFix"/>
<feBlend mode="normal" in="SourceGraphic" in2="BackgroundImageFix" result="shape"/>
<feGaussianBlur stdDeviation="400" result="effect1_foregroundBlur_1_8"/>
</filter>
<filter id="filter3_f_1_8" x="-811" y="2897" width="2092" height="2092" filterUnits="userSpaceOnUse" color-interpolation-filters="sRGB">
<feFlood flood-opacity="0" result="BackgroundImageFix"/>
<feBlend mode="normal" in="SourceGraphic" in2="BackgroundImageFix" result="shape"/>
<feGaussianBlur stdDeviation="400" result="effect1_foregroundBlur_1_8"/>
</filter>
<filter id="filter4_f_1_8" x="336" y="3965" width="1986" height="1986" filterUnits="userSpaceOnUse" color-interpolation-filters="sRGB">
<feFlood flood-opacity="0" result="BackgroundImageFix"/>
<feBlend mode="normal" in="SourceGraphic" in2="BackgroundImageFix" result="shape"/>
<feGaussianBlur stdDeviation="400" result="effect1_foregroundBlur_1_8"/>
</filter>
</defs>
</svg>
