<svg width="148" height="167" viewBox="0 0 148 167" fill="none" xmlns="http://www.w3.org/2000/svg">
<path d="M118.478 143.787C118.478 143.835 94.5173 143.877 64.9698 143.877C35.4224 143.877 11.451 143.835 11.451 143.787C11.451 143.739 35.4086 143.697 64.9698 143.697C94.5311 143.697 118.478 143.742 118.478 143.787Z" fill="#263238"/>
<path d="M95.1316 101.545C89.8004 97.8216 88.5927 90.9101 88.8032 84.6956C88.8377 83.6604 88.7238 82.5631 89.2173 81.6556C89.7107 80.7481 90.8632 80.1235 91.7914 80.5583C92.5609 80.9206 92.8956 81.8178 93.3269 82.5596C93.9024 83.5478 94.7458 84.3529 95.7596 84.8819C96.4187 85.2269 97.2365 85.434 97.8886 85.0751C98.7858 84.5817 98.8893 83.3498 98.8824 82.3146C98.8824 80.3892 98.8709 78.4661 98.8479 76.5452C98.7859 75.5138 98.8907 74.4791 99.1584 73.4811C99.4793 72.5011 100.194 71.5936 101.17 71.3176C102.147 71.0415 103.365 71.6109 103.586 72.6185C103.624 73.0452 103.634 73.474 103.617 73.9021C103.644 74.3334 103.844 74.8061 104.248 74.9373C104.652 75.0684 105.073 74.7682 105.383 74.4645C106.446 73.4293 107.171 72.0802 107.844 70.7482C108.516 69.4163 109.176 68.0464 110.142 66.9112C111.108 65.7759 112.443 64.8753 113.937 64.789C115.431 64.7028 116.988 65.6206 117.36 67.0699C117.733 68.5191 116.888 69.9994 115.98 71.1761C114.611 72.9227 112.996 74.4626 111.187 75.7481C110.834 75.941 110.552 76.2422 110.383 76.6073C110.159 77.2975 110.811 77.9876 111.491 78.205C112.26 78.4603 113.095 78.3809 113.906 78.4776C114.717 78.5742 115.58 78.9261 115.887 79.6853C116.308 80.7412 115.425 81.8454 114.558 82.57C112.819 84.0192 110.845 85.1595 108.72 85.9412C107.961 86.2173 107.164 86.4623 106.55 86.9937C105.935 87.525 105.57 88.4533 105.939 89.1813C106.308 89.9094 107.257 90.1406 108.054 89.9922C108.851 89.8438 109.559 89.416 110.318 89.1296C111.736 88.5947 113.565 88.6913 114.458 89.9163C114.735 90.3383 114.911 90.8187 114.97 91.3198C115.03 91.821 114.973 92.3291 114.803 92.8045C114.458 93.7504 113.927 94.6175 113.24 95.3544C110.98 98.0546 108.044 100.106 104.731 101.3C101.443 102.439 98.3959 102.749 95.1281 101.552" fill="#4CAF4F"/>
<path d="M115.842 65.6414C115.842 65.6414 115.811 65.6759 115.742 65.738L115.435 66.0106C115.166 66.2521 114.769 66.6041 114.269 67.0699C112.85 68.3871 111.533 69.8093 110.328 71.3245C109.558 72.2803 108.761 73.3638 107.913 74.5405C107.064 75.7171 106.187 76.9869 105.318 78.3361C104.391 79.7589 103.542 81.231 102.775 82.746C102.374 83.5362 102.022 84.3609 101.66 85.2028L100.59 87.7735C99.1803 91.0115 97.9523 94.3258 96.912 97.7009C96.074 100.462 95.4964 103.296 95.1867 106.165C94.986 108.101 94.9537 110.051 95.0901 111.993C95.1453 112.683 95.1971 113.211 95.2454 113.57C95.2661 113.743 95.2799 113.881 95.2937 113.981V114.122C95.2788 114.077 95.2684 114.031 95.2626 113.984C95.2454 113.884 95.2247 113.75 95.1971 113.577C95.1349 113.232 95.0694 112.687 95.0073 111.997C94.8408 110.051 94.8523 108.095 95.0418 106.151C95.3323 103.27 95.8973 100.423 96.7291 97.6491C97.7607 94.2646 98.9854 90.942 100.397 87.6976L101.494 85.1372C101.857 84.2987 102.212 83.4671 102.616 82.6735C103.388 81.1539 104.244 79.6783 105.18 78.2533C106.063 76.8731 106.953 75.6239 107.792 74.4576C108.63 73.2913 109.441 72.2009 110.207 71.2486C111.424 69.7374 112.759 68.3251 114.2 67.025C114.71 66.5661 115.117 66.2211 115.393 65.9899L115.714 65.7311C115.754 65.6968 115.796 65.6668 115.842 65.6414Z" fill="#263238"/>
<path d="M102.661 82.6666C102.612 82.5245 102.578 82.3776 102.561 82.2284C102.505 81.942 102.443 81.5383 102.371 81.0138C102.222 79.9786 102.071 78.5604 101.908 76.9904C101.746 75.4204 101.563 73.9987 101.412 72.9739C101.332 72.4632 101.263 72.0526 101.215 71.7662C101.177 71.6196 101.158 71.469 101.156 71.3176C101.216 71.4559 101.259 71.6006 101.284 71.749C101.36 72.0319 101.446 72.4391 101.543 72.9532C101.739 73.9884 101.933 75.3962 102.095 76.9697C102.257 78.5432 102.395 79.9234 102.502 80.9966C102.554 81.4796 102.599 81.8903 102.633 82.2181C102.66 82.366 102.669 82.5166 102.661 82.6666Z" fill="#263238"/>
<path d="M115.939 80.1891C115.771 80.2257 115.6 80.2465 115.428 80.2513C115.083 80.2823 114.593 80.3237 113.986 80.3927C112.771 80.5238 111.101 80.7654 109.269 81.1104C107.436 81.4555 105.79 81.8454 104.607 82.1456C104.017 82.2975 103.541 82.4355 103.227 82.5286C103.059 82.5882 102.885 82.6299 102.709 82.6529C102.868 82.5727 103.035 82.5069 103.206 82.4562C103.53 82.3423 103.999 82.1836 104.586 82.0145C105.763 81.6694 107.409 81.2588 109.248 80.9069C110.806 80.609 112.378 80.3901 113.958 80.2513C114.569 80.1995 115.062 80.1788 115.407 80.1719C115.584 80.1598 115.762 80.1656 115.939 80.1891Z" fill="#263238"/>
<path d="M96.8982 97.4075C96.8614 97.3576 96.8313 97.3031 96.8085 97.2454L96.5808 96.7657C96.3841 96.3482 96.1184 95.7305 95.8009 94.9749C95.1591 93.4566 94.3413 91.331 93.4718 88.9708C92.6022 86.6106 91.8017 84.485 91.1944 82.9495C90.8976 82.2042 90.6526 81.5934 90.4698 81.138L90.2765 80.6445C90.2497 80.5876 90.2312 80.5272 90.2213 80.4651C90.2581 80.515 90.2883 80.5696 90.311 80.6273L90.5388 81.1069C90.732 81.5244 91.0011 82.1421 91.3186 82.8978C91.9604 84.416 92.7782 86.5416 93.6478 88.9018C94.5173 91.262 95.3178 93.3876 95.9252 94.9231C96.2219 95.6684 96.4669 96.2792 96.6463 96.7347C96.7257 96.9313 96.7913 97.0797 96.843 97.2281C96.8698 97.285 96.8884 97.3454 96.8982 97.4075Z" fill="#263238"/>
<path d="M114.524 91.7245C114.469 91.7562 114.409 91.7806 114.348 91.7969L113.837 91.9695L111.95 92.5802C110.356 93.0978 108.154 93.8363 105.739 94.6506C103.323 95.4649 101.111 96.1896 99.5069 96.6726C98.7063 96.9176 98.0542 97.104 97.6021 97.2282L97.0811 97.3628C97.0205 97.382 96.9581 97.3947 96.8948 97.4007C96.95 97.369 97.0092 97.3446 97.0707 97.3283L97.5814 97.1557L99.4689 96.545C101.063 96.0274 103.265 95.289 105.68 94.4746C108.095 93.6603 110.304 92.9356 111.908 92.4526C112.712 92.2076 113.361 92.0212 113.817 91.897L114.338 91.7624C114.398 91.7432 114.461 91.7305 114.524 91.7245Z" fill="#263238"/>
<path d="M107.333 8.02329L105.556 8.6582L104.793 6.33594C103.392 2.05375 98.9272 -0.220194 94.8244 1.22561C90.7217 2.67141 88.5375 7.36767 89.9384 11.6499L90.701 13.9721L88.917 14.6105C88.2368 14.8743 87.6843 15.3902 87.3746 16.0508C87.0649 16.7114 87.0216 17.466 87.2538 18.1577L92.1985 33.2679C92.3012 33.6103 92.4716 33.9286 92.6997 34.2038C92.9277 34.4791 93.2088 34.7057 93.5262 34.8701C93.8436 35.0346 94.1908 35.1336 94.5472 35.1613C94.9036 35.1889 95.2619 35.1447 95.6008 35.0311L114.017 28.4439C114.706 28.1805 115.266 27.6601 115.58 26.9921C115.893 26.3241 115.935 25.5606 115.697 24.8622L110.749 9.75204C110.644 9.41058 110.471 9.09384 110.24 8.82072C110.01 8.54759 109.727 8.32367 109.408 8.16233C109.089 8.00099 108.741 7.90552 108.385 7.88163C108.028 7.85774 107.67 7.90592 107.333 8.02329ZM93.2958 10.4387C92.9181 9.32527 92.9859 8.10886 93.485 7.0443C93.9842 5.97975 94.876 5.14967 95.9735 4.72797C96.5154 4.54254 97.0892 4.46818 97.6605 4.50933C98.2318 4.55048 98.789 4.70629 99.2988 4.96746C99.8086 5.22863 100.261 5.58982 100.628 6.02947C100.995 6.46912 101.27 6.97822 101.436 7.5264L102.195 9.84865L94.055 12.761L93.2958 10.4387ZM103.648 23.8477L104.911 27.7055C104.934 27.7829 104.926 27.8662 104.89 27.9381C104.853 28.0101 104.79 28.0652 104.714 28.092L102.944 28.7234C102.873 28.743 102.798 28.7345 102.734 28.6997C102.669 28.665 102.621 28.6067 102.599 28.5371L101.325 24.6966C100.623 24.6583 99.9496 24.4065 99.3946 23.9748C98.8396 23.5432 98.4297 22.9522 98.2198 22.2812C97.9197 21.394 97.9745 20.4251 98.3726 19.5774C98.7707 18.7297 99.4814 18.0688 100.356 17.7333C100.787 17.5858 101.244 17.5267 101.699 17.5596C102.155 17.5924 102.598 17.7166 103.004 17.9246C103.41 18.1326 103.77 18.4202 104.063 18.7703C104.355 19.1204 104.574 19.5258 104.707 19.9624C104.929 20.644 104.947 21.3757 104.76 22.0676C104.572 22.7596 104.187 23.3818 103.651 23.8581L103.648 23.8477Z" fill="#4CAF4F"/>
<path d="M105.476 8.61683C105.476 8.66514 102.181 9.9039 98.0819 11.3773C93.9825 12.8507 90.6389 14.0343 90.6216 13.9998C90.6044 13.9653 93.917 12.7161 98.0197 11.2393C102.122 9.76243 105.459 8.57197 105.476 8.61683Z" fill="#263238"/>
<path d="M109.389 9.25171C109.405 9.28165 109.417 9.31282 109.427 9.34487C109.455 9.41389 109.486 9.5036 109.527 9.61402C109.617 9.86592 109.741 10.2144 109.897 10.6492L111.222 14.507C111.774 16.1426 112.433 18.0818 113.164 20.235C113.509 21.315 113.917 22.4399 114.296 23.6235C114.499 24.2334 114.587 24.8758 114.555 25.5178C114.526 25.8517 114.431 26.1766 114.275 26.4736C114.11 26.7697 113.888 27.031 113.623 27.2431C113.09 27.6323 112.498 27.934 111.87 28.1368L110.093 28.7752L106.729 29.9795L101.032 32.0084L97.1847 33.361L96.1495 33.7061L95.8734 33.7958C95.8439 33.8089 95.8124 33.8171 95.7803 33.82C95.7803 33.82 95.8079 33.82 95.8665 33.7786L96.1357 33.6716L97.1709 33.2817L100.998 31.8738L106.684 29.8035L110.042 28.5889L111.819 27.9471C112.429 27.7524 113.003 27.4599 113.52 27.081C113.766 26.8841 113.972 26.6416 114.127 26.3667C114.273 26.0919 114.361 25.7901 114.386 25.4799C114.418 24.8612 114.333 24.2421 114.137 23.6545C113.765 22.4813 113.371 21.3461 113.016 20.266C112.298 18.1094 111.636 16.1633 111.111 14.5277C110.587 12.8921 110.145 11.5774 109.841 10.6527C109.697 10.2006 109.586 9.84866 109.496 9.59332L109.414 9.31727C109.403 9.29636 109.395 9.27438 109.389 9.25171Z" fill="#263238"/>
<path d="M99.6725 4.49338C99.6725 4.49338 99.4896 4.40367 99.1515 4.26564C98.6694 4.08044 98.1597 3.97779 97.6435 3.96199C96.8785 3.93576 96.1172 4.07954 95.4145 4.38296C94.5599 4.76079 93.8292 5.37193 93.3061 6.14622C92.7796 6.9183 92.4971 7.83071 92.4953 8.76523C92.5024 9.53116 92.6186 10.2922 92.8403 11.0254C93.0197 11.6534 93.2061 12.1537 93.3303 12.5022C93.4036 12.6792 93.4636 12.8615 93.5097 13.0474C93.4117 12.8819 93.3297 12.7074 93.2647 12.5264C93.1233 12.1813 92.9197 11.6913 92.7195 11.0599C92.4739 10.319 92.3401 9.54559 92.3227 8.76523C92.3135 7.79541 92.6026 6.84619 93.1509 6.04615C93.6921 5.24358 94.4527 4.61355 95.342 4.23114C96.0667 3.92605 96.8517 3.79147 97.6366 3.83777C98.164 3.86464 98.682 3.98742 99.1653 4.20008C99.2945 4.25969 99.419 4.3289 99.5379 4.40712C99.587 4.42868 99.6324 4.45779 99.6725 4.49338Z" fill="#263238"/>
<path d="M99.8313 17.9955C99.8863 17.9621 99.944 17.9332 100.004 17.9092C100.177 17.8313 100.355 17.7678 100.539 17.7194C100.829 17.6336 101.129 17.5826 101.432 17.5676C101.844 17.5455 102.256 17.6077 102.644 17.7505C103.527 18.061 104.338 18.9616 104.738 20.1659C104.93 20.8122 104.93 21.5003 104.738 22.1465C104.525 22.848 104.144 23.4866 103.627 24.0064L103.648 23.9133C104.107 25.1727 104.607 26.5392 105.124 27.9643L105.156 28.0505L105.069 28.0816L104.279 28.3438L102.554 28.9201L102.468 28.9477L102.44 28.8614C101.967 27.4329 101.45 26.1009 101.06 24.7932L101.136 24.8518C100.461 24.7958 99.8178 24.5426 99.2861 24.1237C98.805 23.7532 98.4105 23.2822 98.1301 22.7435C97.8772 22.2658 97.7512 21.7311 97.7644 21.1907C97.7803 20.6384 97.9182 20.0965 98.1682 19.6038C98.4181 19.111 98.774 18.6796 99.2102 18.3405C99.3897 18.1948 99.5912 18.0783 99.8071 17.9955C99.6122 18.1111 99.4233 18.2367 99.2412 18.3716C98.7621 18.777 98.3949 19.2986 98.175 19.8864C97.9862 20.3297 97.8979 20.8093 97.9164 21.2907C97.9349 21.7722 98.0597 22.2435 98.282 22.671C98.5576 23.1892 98.9426 23.6414 99.4103 23.9961C99.9176 24.3942 100.531 24.6342 101.174 24.6862H101.232L101.249 24.7379C101.629 26.0216 102.15 27.3639 102.63 28.7993L102.516 28.7441L104.241 28.1678L105.028 27.9021L104.973 28.0195C104.459 26.5944 103.962 25.2245 103.506 23.965V23.9133L103.548 23.8718C104.049 23.3735 104.423 22.7616 104.638 22.0879C104.821 21.4697 104.821 20.8117 104.638 20.1935C104.262 19.0341 103.485 18.1542 102.644 17.8436C102.271 17.6999 101.873 17.633 101.474 17.647C101.176 17.6538 100.879 17.6943 100.59 17.7677C100.076 17.8954 99.8347 18.0127 99.8313 17.9955Z" fill="#263238"/>
<path d="M89.1655 117.628L54.6974 117.469C52.7069 117.458 50.8021 116.658 49.4014 115.244C48.0007 113.829 47.2186 111.917 47.2269 109.926L47.5926 23.5199C47.5967 22.5337 47.7951 21.558 48.1764 20.6486C48.5578 19.7391 49.1147 18.9137 49.8152 18.2196C50.5157 17.5255 51.3462 16.9763 52.2591 16.6033C53.172 16.2303 54.1495 16.0409 55.1356 16.0459L89.6002 16.2046C91.5907 16.2146 93.4959 17.0143 94.8972 18.428C96.2986 19.8416 97.0816 21.7536 97.0742 23.7442L96.7085 110.147C96.7044 111.134 96.5061 112.11 96.1248 113.02C95.7435 113.929 95.1868 114.755 94.4863 115.45C93.7859 116.145 92.9555 116.694 92.0425 117.068C91.1296 117.442 90.1519 117.632 89.1655 117.628Z" fill="#455A64"/>
<path d="M89.5485 19.1755H82.8681C82.6502 19.1796 82.4351 19.2265 82.2353 19.3137C82.0355 19.4008 81.8548 19.5265 81.7035 19.6835C81.5523 19.8405 81.4334 20.0258 81.3538 20.2287C81.2742 20.4317 81.2353 20.6483 81.2395 20.8663V22.0775C81.2436 22.2953 81.2047 22.5117 81.125 22.7145C81.0453 22.9172 80.9264 23.1023 80.7752 23.259C80.6239 23.4158 80.4431 23.5411 80.2433 23.6279C80.0435 23.7147 79.8286 23.7612 79.6108 23.7648L66.5882 23.7062C66.1477 23.6944 65.7298 23.5083 65.4264 23.1887C65.1229 22.8691 64.9587 22.4421 64.9699 22.0016V20.7904C64.981 20.3504 64.8173 19.924 64.5146 19.6045C64.2119 19.2849 63.7949 19.0984 63.355 19.0858H61.0051L55.1564 19.0582C53.7652 19.0499 52.4275 19.5932 51.436 20.5691C50.4446 21.545 49.8803 22.874 49.8666 24.2652L49.5215 108.605C49.5184 109.295 49.6511 109.979 49.9123 110.618C50.1735 111.256 50.5579 111.838 51.0437 112.328C51.5294 112.818 52.107 113.208 52.7434 113.475C53.3798 113.742 54.0625 113.881 54.7526 113.884L89.1482 114.043C89.8388 114.046 90.5233 113.913 91.1625 113.652C91.8017 113.39 92.3832 113.006 92.8738 112.52C93.3643 112.034 93.7544 111.456 94.0216 110.819C94.2888 110.182 94.4279 109.499 94.4311 108.808L94.7761 24.4687C94.7844 23.0737 94.2384 21.7325 93.2581 20.7399C92.2778 19.7473 90.9435 19.1846 89.5485 19.1755Z" fill="white"/>
<path d="M84.9212 102.79L59.3454 102.68C59.0797 102.68 58.8657 102.39 58.8692 102.038L58.8968 95.3475C58.8968 95.0024 59.1142 94.7057 59.3799 94.7057L84.9557 94.823C85.1029 94.8485 85.2347 94.9298 85.3234 95.05C85.4121 95.1702 85.451 95.3201 85.4319 95.4683L85.4077 102.152C85.4077 102.507 85.1869 102.794 84.9212 102.79Z" fill="#4CAF4F"/>
<path d="M67.1214 98.7099C66.9802 98.7099 66.8445 98.6873 66.7142 98.642C66.5857 98.595 66.4861 98.5352 66.4156 98.4628L66.4943 98.3081C66.5613 98.3733 66.6508 98.4285 66.763 98.4737C66.8771 98.5171 66.9965 98.5389 67.1214 98.5389C67.2408 98.5389 67.3377 98.5244 67.4119 98.4954C67.4879 98.4647 67.5431 98.4239 67.5775 98.3733C67.6137 98.3226 67.6318 98.2665 67.6318 98.2049C67.6318 98.1307 67.6101 98.071 67.5666 98.0258C67.525 97.9805 67.4698 97.9452 67.401 97.9199C67.3322 97.8927 67.2562 97.8692 67.173 97.8493C67.0897 97.8294 67.0065 97.8086 66.9232 97.7869C66.84 97.7633 66.763 97.7326 66.6925 97.6946C66.6237 97.6566 66.5676 97.6068 66.5241 97.5453C66.4825 97.4819 66.4617 97.3996 66.4617 97.2982C66.4617 97.2041 66.4861 97.1181 66.535 97.0403C66.5857 96.9607 66.6626 96.8973 66.7658 96.8503C66.8689 96.8014 67.001 96.777 67.1621 96.777C67.2689 96.777 67.3748 96.7924 67.4797 96.8231C67.5847 96.8521 67.6752 96.8928 67.7512 96.9453L67.6834 97.1055C67.6019 97.0512 67.515 97.0114 67.4227 96.986C67.3322 96.9607 67.2445 96.948 67.1594 96.948C67.0454 96.948 66.9513 96.9634 66.8771 96.9942C66.8029 97.0249 66.7477 97.0666 66.7115 97.119C66.6771 97.1697 66.6599 97.2276 66.6599 97.2928C66.6599 97.367 66.6807 97.4267 66.7223 97.472C66.7658 97.5172 66.8219 97.5525 66.8906 97.5778C66.9612 97.6032 67.0381 97.6258 67.1214 97.6457C67.2046 97.6656 67.287 97.6873 67.3684 97.7109C67.4517 97.7344 67.5277 97.7652 67.5965 97.8032C67.6671 97.8394 67.7232 97.8882 67.7648 97.9498C67.8082 98.0113 67.83 98.0918 67.83 98.1914C67.83 98.2837 67.8046 98.3696 67.7539 98.4493C67.7033 98.5271 67.6254 98.5904 67.5205 98.6393C67.4173 98.6864 67.2843 98.7099 67.1214 98.7099ZM68.2677 98.6936V96.7933H68.4686V98.6936H68.2677ZM69.0869 98.6936V96.7933H69.2525L70.5637 98.4438H70.4768V96.7933H70.675V98.6936H70.5094L69.2009 97.043H69.2878V98.6936H69.0869ZM72.1287 98.7099C71.9839 98.7099 71.85 98.6864 71.7269 98.6393C71.6057 98.5904 71.4998 98.5226 71.4093 98.4357C71.3206 98.3488 71.2509 98.2466 71.2002 98.1289C71.1514 98.0113 71.1269 97.8828 71.1269 97.7434C71.1269 97.6041 71.1514 97.4756 71.2002 97.3579C71.2509 97.2403 71.3215 97.138 71.412 97.0512C71.5025 96.9643 71.6084 96.8973 71.7296 96.8503C71.8527 96.8014 71.9866 96.777 72.1314 96.777C72.2762 96.777 72.4083 96.7996 72.5278 96.8448C72.649 96.8901 72.7522 96.9589 72.8372 97.0512L72.7124 97.1788C72.6327 97.0991 72.545 97.0421 72.449 97.0077C72.3531 96.9733 72.25 96.9562 72.1396 96.9562C72.0219 96.9562 71.9133 96.9761 71.8138 97.0159C71.7161 97.0539 71.6301 97.1091 71.5559 97.1815C71.4835 97.2521 71.4265 97.3353 71.3848 97.4312C71.345 97.5253 71.3251 97.6294 71.3251 97.7434C71.3251 97.8556 71.345 97.9597 71.3848 98.0556C71.4265 98.1516 71.4835 98.2357 71.5559 98.3081C71.6301 98.3787 71.7161 98.4339 71.8138 98.4737C71.9133 98.5117 72.021 98.5307 72.1368 98.5307C72.2454 98.5307 72.3477 98.5144 72.4436 98.4819C72.5413 98.4493 72.6309 98.3941 72.7124 98.3163L72.8264 98.4683C72.7359 98.5479 72.63 98.6085 72.5088 98.6502C72.3875 98.69 72.2608 98.7099 72.1287 98.7099ZM72.6336 98.4438V97.7434H72.8264V98.4683L72.6336 98.4438ZM74.871 98.7099C74.6285 98.7099 74.4376 98.6402 74.2982 98.5009C74.1589 98.3615 74.0892 98.1552 74.0892 97.8819V96.7933H74.2901V97.8737C74.2901 98.0982 74.3407 98.2638 74.4421 98.3705C74.5434 98.4773 74.6864 98.5307 74.871 98.5307C75.0574 98.5307 75.2013 98.4773 75.3027 98.3705C75.404 98.2638 75.4547 98.0982 75.4547 97.8737V96.7933H75.6502V97.8819C75.6502 98.1552 75.5805 98.3615 75.4411 98.5009C75.3036 98.6402 75.1136 98.7099 74.871 98.7099ZM76.2555 98.6936V96.7933H76.9668C77.1279 96.7933 77.2663 96.8195 77.3822 96.872C77.498 96.9227 77.5867 96.9969 77.6482 97.0946C77.7116 97.1905 77.7432 97.3073 77.7432 97.4448C77.7432 97.5787 77.7116 97.6946 77.6482 97.7923C77.5867 97.8882 77.498 97.9624 77.3822 98.0149C77.2663 98.0674 77.1279 98.0936 76.9668 98.0936H76.3668L76.4564 97.9986V98.6936H76.2555ZM76.4564 98.0149L76.3668 97.9172H76.9614C77.1514 97.9172 77.2953 97.8765 77.393 97.795C77.4926 97.7118 77.5423 97.595 77.5423 97.4448C77.5423 97.2928 77.4926 97.1751 77.393 97.0919C77.2953 97.0086 77.1514 96.967 76.9614 96.967H76.3668L76.4564 96.872V98.0149Z" fill="#E8E8E3"/>
<path d="M64.4467 43.9681L55.5719 43.9279L55.5645 45.5565L64.4394 45.5968L64.4467 43.9681Z" fill="#4CAF4F"/>
<path opacity="0.1" d="M64.4467 43.9681L55.5719 43.9279L55.5645 45.5565L64.4394 45.5968L64.4467 43.9681Z" fill="black"/>
<path d="M90.4628 53.9679C90.5325 53.9609 90.601 53.9447 90.6664 53.9196C90.7619 53.8823 90.8449 53.8188 90.906 53.7364C90.967 53.654 91.0036 53.556 91.0114 53.4538C91.0114 52.9052 91.0114 52.1046 91.0114 51.0763C91.0114 50.5622 91.0114 49.9859 91.0114 49.351C91.0114 49.1958 91.0114 49.0336 91.0114 48.8714C91.0339 48.714 90.9997 48.5538 90.9148 48.4194C90.8673 48.3549 90.8055 48.3024 90.7343 48.2658C90.663 48.2293 90.5843 48.2098 90.5042 48.2089H89.9659H84.9798L56.119 48.1019C56.0451 48.1007 55.972 48.1173 55.906 48.1503C55.8399 48.1833 55.7827 48.2319 55.7394 48.2917C55.6561 48.4267 55.6242 48.5872 55.6497 48.7437C55.6497 49.0888 55.6497 49.4339 55.6497 49.7789C55.6497 50.469 55.6497 51.1592 55.6497 51.8493C55.6497 52.1943 55.6497 52.5394 55.6497 52.8845C55.6354 53.0452 55.6354 53.2068 55.6497 53.3675C55.6678 53.4364 55.7015 53.5003 55.7482 53.5541C55.7948 53.6079 55.8532 53.6504 55.9189 53.6781C55.9868 53.7052 56.0596 53.7181 56.1328 53.7161H57.8891L65.5529 53.7575L78.5272 53.8368L87.2745 53.9058L89.6519 53.9334H90.2696C90.411 53.9334 90.4801 53.9334 90.4801 53.9334H90.2696H89.6519H87.2745H78.5272L65.5529 53.892L57.8891 53.861H56.1328C56.0361 53.8649 55.9397 53.8484 55.8498 53.8127C55.759 53.7739 55.6782 53.7149 55.6136 53.6401C55.549 53.5654 55.5024 53.4769 55.4772 53.3813C55.4572 53.2908 55.4502 53.1978 55.4565 53.1053V52.8499C55.4565 52.5049 55.4565 52.1598 55.4565 51.8148C55.4565 51.1246 55.4565 50.4345 55.4565 49.7444C55.4565 49.3993 55.4565 49.0543 55.4565 48.7092C55.4499 48.6173 55.4499 48.5251 55.4565 48.4332C55.4694 48.3317 55.5087 48.2353 55.5703 48.1537C55.6299 48.0704 55.7087 48.0027 55.8 47.9565C55.8913 47.9102 55.9925 47.8867 56.0948 47.888L84.9556 48.0467L89.9418 48.0812H90.4801C90.5749 48.0813 90.6683 48.1042 90.7524 48.1481C90.8365 48.1919 90.9088 48.2554 90.9631 48.3331C91.0604 48.4831 91.0997 48.6635 91.0736 48.8404C91.0736 49.0025 91.0736 49.1647 91.0736 49.32C91.0736 49.948 91.0736 50.5242 91.0736 51.0453C91.0736 52.0805 91.0494 52.8741 91.0425 53.4262C91.0341 53.5324 90.9955 53.6339 90.9313 53.7189C90.8671 53.8038 90.78 53.8687 90.6802 53.9058C90.6149 53.9463 90.5396 53.9678 90.4628 53.9679Z" fill="#E0E0E0"/>
<path d="M74.4693 49.8341H58.2377V51.3558H74.4693V49.8341Z" fill="#4CAF4F"/>
<path opacity="0.2" d="M74.4693 49.8341H58.2377V51.3558H74.4693V49.8341Z" fill="white"/>
<path d="M64.3862 58.826L55.5114 58.7858L55.504 60.4144L64.3788 60.4547L64.3862 58.826Z" fill="#4CAF4F"/>
<path opacity="0.1" d="M64.3862 58.826L55.5114 58.7858L55.504 60.4144L64.3788 60.4547L64.3862 58.826Z" fill="black"/>
<path d="M90.2386 68.8262C90.3083 68.8176 90.3774 68.8049 90.4456 68.7882C90.542 68.7575 90.6306 68.7066 90.7057 68.6387C90.7807 68.5708 90.8402 68.4877 90.8804 68.3949C90.9347 68.2556 90.956 68.1055 90.9425 67.9566C90.9425 67.791 90.9425 67.6116 90.9425 67.4114C90.9425 67.0112 90.9425 66.5557 90.9425 66.0312V63.8401C90.959 63.6814 90.9239 63.5217 90.8424 63.3846C90.7573 63.244 90.6234 63.1396 90.4663 63.0913C90.2944 63.0606 90.1194 63.0513 89.9453 63.0637H84.9798L56.2191 62.9567C56.0644 62.9571 55.9151 63.0136 55.7989 63.1158C55.6828 63.218 55.6077 63.3589 55.5876 63.5123C55.5876 63.8401 55.5876 64.2024 55.5876 64.5474C55.5876 65.2376 55.5876 65.9277 55.5876 66.6178C55.5876 66.9629 55.5876 67.3079 55.5876 67.653C55.5748 67.8142 55.5817 67.9765 55.6083 68.1361C55.6514 68.276 55.7401 68.3974 55.8602 68.4811C55.9877 68.562 56.1374 68.6006 56.2881 68.5915H56.7677H57.765L65.4011 68.6295L78.3305 68.7089L87.0467 68.7779L89.4173 68.8055H87.0467H78.3305L65.3942 68.7917L57.7581 68.7641H56.2571C56.0704 68.7751 55.8852 68.7255 55.7291 68.6226C55.5721 68.5138 55.4575 68.3541 55.4048 68.1706C55.3738 67.9952 55.3646 67.8168 55.3771 67.6392C55.3771 67.2941 55.3771 66.949 55.3771 66.604C55.3771 65.9139 55.3771 65.2238 55.3771 64.5336C55.3771 64.1886 55.3771 63.8435 55.3771 63.4985C55.4023 63.3011 55.4986 63.1198 55.6478 62.9883C55.7971 62.8568 55.9891 62.7843 56.188 62.7842L84.9488 62.9429L89.9142 62.9809C90.0991 62.9695 90.2847 62.9823 90.4663 63.0188C90.6456 63.0774 90.7968 63.2003 90.8907 63.3639C90.98 63.5159 91.0186 63.6923 91.0011 63.8677C91.0011 64.0298 91.0011 64.1886 91.0011 64.3473C91.0011 64.9719 91.0011 65.5447 91.0011 66.0726C91.0011 66.6005 91.0011 67.0457 91.0011 67.4528C91.0011 67.6495 91.0011 67.8324 91.0011 68.0015C91.0137 68.1558 90.9888 68.3109 90.9287 68.4535C90.8839 68.5487 90.8191 68.6332 90.7387 68.701C90.6583 68.7689 90.5642 68.8187 90.4628 68.8469C90.3874 68.8531 90.3115 68.8461 90.2386 68.8262Z" fill="#E0E0E0"/>
<path d="M64.3193 74.3291L55.4445 74.2888L55.4371 75.9175L64.3119 75.9578L64.3193 74.3291Z" fill="#4CAF4F"/>
<path opacity="0.1" d="M64.3193 74.3291L55.4445 74.2888L55.4371 75.9175L64.3119 75.9578L64.3193 74.3291Z" fill="black"/>
<path d="M90.1695 84.3228C90.2393 84.3146 90.3084 84.3019 90.3766 84.2849C90.4725 84.2544 90.5609 84.2038 90.6358 84.1366C90.7108 84.0694 90.7706 83.987 90.8113 83.8949C90.8654 83.7556 90.8867 83.6056 90.8735 83.4567C90.8735 83.2876 90.8735 83.1117 90.8735 82.9081C90.8735 82.5113 90.8735 82.0523 90.8735 81.5278V79.3367C90.8899 79.1781 90.8548 79.0183 90.7734 78.8812C90.6862 78.7432 90.553 78.6405 90.3973 78.5914C90.2255 78.5595 90.0505 78.549 89.8762 78.5603H84.9108L56.1501 78.4534C55.9954 78.4537 55.8461 78.5102 55.7299 78.6124C55.6138 78.7146 55.5387 78.8555 55.5186 79.0089C55.5186 79.354 55.5186 79.699 55.5186 80.0441C55.5186 80.7342 55.5186 81.4243 55.5186 82.1144C55.5186 82.4595 55.5186 82.8046 55.5186 83.1496C55.5058 83.3097 55.5127 83.4708 55.5393 83.6293C55.5806 83.77 55.6697 83.892 55.7912 83.9743C55.9179 84.057 56.0682 84.0958 56.2191 84.0847H57.7201L65.3563 84.1261L78.2857 84.2055L87.0019 84.2745L89.3724 84.3021H87.0019H78.2857L65.3563 84.2642L57.7201 84.2331H56.2191C56.0323 84.2457 55.8466 84.1959 55.6911 84.0916C55.5341 83.9829 55.4195 83.8232 55.3668 83.6396C55.3359 83.4643 55.3266 83.2858 55.3392 83.1082C55.3392 82.7631 55.3392 82.4181 55.3392 82.073C55.3392 81.3829 55.3392 80.6928 55.3392 80.0027C55.3392 79.6576 55.3392 79.3126 55.3392 78.9502C55.3636 78.7532 55.4591 78.5719 55.6078 78.4404C55.7565 78.3088 55.9481 78.2361 56.1466 78.236L84.9074 78.3947L89.8728 78.4326C90.0577 78.4213 90.2433 78.4341 90.4249 78.4706C90.6042 78.5292 90.7554 78.6521 90.8493 78.8157C90.9386 78.9676 90.9772 79.1441 90.9597 79.3194C90.9597 79.4816 90.9597 79.6438 90.9597 79.7991C90.9597 80.4236 90.9597 80.9964 90.9597 81.5244C90.9597 82.0523 90.9597 82.4975 90.9597 82.9046C90.9597 83.1013 90.9597 83.2842 90.9597 83.4533C90.973 83.6076 90.9481 83.7628 90.8873 83.9053C90.8425 84.0005 90.7777 84.0849 90.6973 84.1528C90.6169 84.2207 90.5228 84.2705 90.4214 84.2987C90.3405 84.3264 90.2542 84.3346 90.1695 84.3228Z" fill="#E0E0E0"/>
<path d="M74.1228 65.1226L57.8914 65.049L57.8845 66.5706L74.1159 66.6443L74.1228 65.1226Z" fill="#4CAF4F"/>
<path opacity="0.2" d="M74.1228 65.1226L57.8914 65.049L57.8845 66.5706L74.1159 66.6443L74.1228 65.1226Z" fill="white"/>
<path d="M59.3592 81.5072C59.349 81.646 59.2983 81.7788 59.2134 81.889C59.1284 81.9993 59.013 82.0822 58.8814 82.1274C58.7498 82.1727 58.6078 82.1783 58.473 82.1436C58.3382 82.1089 58.2166 82.0354 58.1232 81.9322C58.0298 81.829 57.9688 81.7006 57.9477 81.5631C57.9266 81.4255 57.9463 81.2848 58.0044 81.1583C58.0625 81.0319 58.1565 80.9253 58.2747 80.8517C58.3928 80.7782 58.5299 80.741 58.6691 80.7446C58.8613 80.7553 59.0416 80.8414 59.1708 80.9842C59.3 81.1269 59.3677 81.3149 59.3592 81.5072Z" fill="#4CAF4F"/>
<path d="M61.5571 81.5175C61.5639 81.6148 61.5506 81.7124 61.5181 81.8044C61.4855 81.8963 61.4344 81.9805 61.3679 82.0518C61.3014 82.1231 61.2209 82.18 61.1314 82.2189C61.042 82.2578 60.9455 82.2778 60.848 82.2778C60.7505 82.2778 60.654 82.2578 60.5646 82.2189C60.4752 82.18 60.3947 82.1231 60.3282 82.0518C60.2617 81.9805 60.2106 81.8963 60.178 81.8044C60.1454 81.7124 60.1321 81.6148 60.1389 81.5175C60.1321 81.4202 60.1454 81.3226 60.178 81.2307C60.2106 81.1388 60.2617 81.0545 60.3282 80.9832C60.3947 80.9119 60.4752 80.855 60.5646 80.8162C60.654 80.7773 60.7505 80.7572 60.848 80.7572C60.9455 80.7572 61.042 80.7773 61.1314 80.8162C61.2209 80.855 61.3014 80.9119 61.3679 80.9832C61.4344 81.0545 61.4855 81.1388 61.5181 81.2307C61.5506 81.3226 61.5639 81.4202 61.5571 81.5175Z" fill="#4CAF4F"/>
<path d="M63.7586 81.5279C63.7484 81.6667 63.6977 81.7994 63.6128 81.9097C63.5279 82.0199 63.4124 82.1028 63.2808 82.148C63.1492 82.1933 63.0072 82.1989 62.8724 82.1642C62.7377 82.1295 62.616 82.056 62.5226 81.9528C62.4293 81.8496 62.3682 81.7213 62.3471 81.5837C62.326 81.4462 62.3457 81.3054 62.4038 81.179C62.4619 81.0525 62.5559 80.9459 62.6741 80.8724C62.7922 80.7988 62.9294 80.7616 63.0685 80.7653C63.2604 80.7768 63.4401 80.8632 63.5692 81.0057C63.6982 81.1483 63.7662 81.3357 63.7586 81.5279Z" fill="#4CAF4F"/>
<path d="M65.9567 81.5382C65.9465 81.677 65.8958 81.8098 65.8109 81.92C65.726 82.0303 65.6105 82.1132 65.4789 82.1584C65.3473 82.2037 65.2053 82.2093 65.0705 82.1746C64.9358 82.1399 64.8142 82.0664 64.7208 81.9632C64.6274 81.86 64.5663 81.7317 64.5452 81.5941C64.5241 81.4565 64.5438 81.3158 64.6019 81.1893C64.6601 81.0629 64.754 80.9563 64.8722 80.8827C64.9903 80.8092 65.1275 80.772 65.2666 80.7756C65.4585 80.7872 65.6383 80.8736 65.7673 81.0161C65.8963 81.1587 65.9643 81.3461 65.9567 81.5382Z" fill="#4CAF4F"/>
<path d="M68.1547 81.5452C68.1452 81.6842 68.095 81.8173 68.0105 81.928C67.9259 82.0388 67.8107 82.1222 67.6791 82.168C67.5475 82.2137 67.4053 82.2198 67.2703 82.1855C67.1353 82.1511 67.0133 82.0778 66.9196 81.9747C66.8259 81.8716 66.7645 81.7433 66.7431 81.6056C66.7218 81.4679 66.7414 81.327 66.7994 81.2004C66.8575 81.0737 66.9515 80.9669 67.0698 80.8932C67.188 80.8196 67.3253 80.7823 67.4646 80.786C67.6559 80.7976 67.8351 80.8835 67.964 81.0253C68.0929 81.1671 68.1614 81.3536 68.1547 81.5452Z" fill="#4CAF4F"/>
<path d="M70.3563 81.5555C70.3469 81.6938 70.2972 81.8263 70.2135 81.9368C70.1297 82.0472 70.0155 82.1307 69.8849 82.1771C69.7542 82.2235 69.6129 82.2306 69.4783 82.1977C69.3436 82.1648 69.2216 82.0932 69.1271 81.9918C69.0326 81.8904 68.9698 81.7636 68.9464 81.627C68.9231 81.4903 68.9402 81.3499 68.9957 81.2228C69.0511 81.0958 69.1425 80.9877 69.2586 80.912C69.3746 80.8362 69.5103 80.796 69.6489 80.7964C69.8433 80.8036 70.0268 80.8875 70.1594 81.0298C70.292 81.1721 70.3628 81.3611 70.3563 81.5555Z" fill="#4CAF4F"/>
<path d="M72.5542 81.5659C72.561 81.6631 72.5477 81.7608 72.5151 81.8527C72.4826 81.9446 72.4314 82.0289 72.3649 82.1002C72.2984 82.1715 72.2179 82.2284 72.1285 82.2672C72.0391 82.3061 71.9426 82.3262 71.8451 82.3262C71.7476 82.3262 71.6511 82.3061 71.5617 82.2672C71.4722 82.2284 71.3918 82.1715 71.3253 82.1002C71.2588 82.0289 71.2076 81.9446 71.1751 81.8527C71.1425 81.7608 71.1292 81.6631 71.136 81.5659C71.1292 81.4686 71.1425 81.3709 71.1751 81.279C71.2076 81.1871 71.2588 81.1029 71.3253 81.0315C71.3918 80.9602 71.4722 80.9034 71.5617 80.8645C71.6511 80.8256 71.7476 80.8055 71.8451 80.8055C71.9426 80.8055 72.0391 80.8256 72.1285 80.8645C72.2179 80.9034 72.2984 80.9602 72.3649 81.0315C72.4314 81.1029 72.4826 81.1871 72.5151 81.279C72.5477 81.3709 72.561 81.4686 72.5542 81.5659Z" fill="#4CAF4F"/>
<path d="M74.7523 81.5761C74.7429 81.7144 74.6932 81.847 74.6095 81.9574C74.5257 82.0678 74.4115 82.1514 74.2808 82.1977C74.1502 82.2441 74.0089 82.2512 73.8743 82.2183C73.7396 82.1854 73.6175 82.1138 73.5231 82.0124C73.4286 81.911 73.3658 81.7842 73.3424 81.6476C73.3191 81.5109 73.3362 81.3705 73.3916 81.2434C73.4471 81.1164 73.5385 81.0084 73.6545 80.9326C73.7706 80.8568 73.9063 80.8167 74.0449 80.817C74.2393 80.8242 74.4228 80.9081 74.5554 81.0504C74.688 81.1927 74.7588 81.3818 74.7523 81.5761Z" fill="#4CAF4F"/>
<path d="M76.9503 81.5865C76.9407 81.7255 76.8906 81.8587 76.806 81.9694C76.7214 82.0801 76.6062 82.1636 76.4746 82.2093C76.343 82.2551 76.2009 82.2612 76.0658 82.2269C75.9308 82.1925 75.8089 82.1192 75.7151 82.0161C75.6214 81.913 75.56 81.7847 75.5387 81.647C75.5173 81.5093 75.5369 81.3684 75.595 81.2417C75.653 81.1151 75.747 81.0083 75.8653 80.9346C75.9836 80.861 76.1209 80.8237 76.2601 80.8274C76.4514 80.839 76.6306 80.9248 76.7596 81.0666C76.8885 81.2084 76.9569 81.395 76.9503 81.5865Z" fill="#4CAF4F"/>
<g opacity="0.2">
<path d="M59.3592 81.5072C59.349 81.646 59.2983 81.7788 59.2134 81.889C59.1284 81.9993 59.013 82.0822 58.8814 82.1274C58.7498 82.1727 58.6078 82.1783 58.473 82.1436C58.3382 82.1089 58.2166 82.0354 58.1232 81.9322C58.0298 81.829 57.9688 81.7006 57.9477 81.5631C57.9266 81.4255 57.9463 81.2848 58.0044 81.1583C58.0625 81.0319 58.1565 80.9253 58.2747 80.8517C58.3928 80.7782 58.5299 80.741 58.6691 80.7446C58.8613 80.7553 59.0416 80.8414 59.1708 80.9842C59.3 81.1269 59.3677 81.3149 59.3592 81.5072Z" fill="white"/>
<path d="M61.5571 81.5175C61.5639 81.6148 61.5506 81.7124 61.5181 81.8044C61.4855 81.8963 61.4344 81.9805 61.3679 82.0518C61.3014 82.1231 61.2209 82.18 61.1314 82.2189C61.042 82.2578 60.9455 82.2778 60.848 82.2778C60.7505 82.2778 60.654 82.2578 60.5646 82.2189C60.4752 82.18 60.3947 82.1231 60.3282 82.0518C60.2617 81.9805 60.2106 81.8963 60.178 81.8044C60.1454 81.7124 60.1321 81.6148 60.1389 81.5175C60.1321 81.4202 60.1454 81.3226 60.178 81.2307C60.2106 81.1388 60.2617 81.0545 60.3282 80.9832C60.3947 80.9119 60.4752 80.855 60.5646 80.8162C60.654 80.7773 60.7505 80.7572 60.848 80.7572C60.9455 80.7572 61.042 80.7773 61.1314 80.8162C61.2209 80.855 61.3014 80.9119 61.3679 80.9832C61.4344 81.0545 61.4855 81.1388 61.5181 81.2307C61.5506 81.3226 61.5639 81.4202 61.5571 81.5175Z" fill="white"/>
<path d="M63.7587 81.528C63.7485 81.6668 63.6978 81.7995 63.6129 81.9098C63.528 82.02 63.4125 82.1029 63.2809 82.1482C63.1493 82.1934 63.0073 82.199 62.8725 82.1643C62.7378 82.1296 62.6162 82.0561 62.5228 81.9529C62.4294 81.8497 62.3683 81.7214 62.3472 81.5838C62.3261 81.4463 62.3458 81.3055 62.4039 81.1791C62.4621 81.0526 62.556 80.946 62.6742 80.8725C62.7923 80.7989 62.9295 80.7617 63.0686 80.7654C63.2605 80.777 63.4403 80.8633 63.5693 81.0059C63.6983 81.1484 63.7663 81.3359 63.7587 81.528Z" fill="white"/>
<path d="M65.9567 81.5382C65.9465 81.677 65.8958 81.8098 65.8109 81.92C65.726 82.0303 65.6105 82.1132 65.4789 82.1584C65.3473 82.2037 65.2053 82.2093 65.0705 82.1746C64.9358 82.1399 64.8142 82.0664 64.7208 81.9632C64.6274 81.86 64.5663 81.7317 64.5452 81.5941C64.5241 81.4565 64.5438 81.3158 64.6019 81.1893C64.6601 81.0629 64.754 80.9563 64.8722 80.8827C64.9903 80.8092 65.1275 80.772 65.2666 80.7756C65.4585 80.7872 65.6383 80.8736 65.7673 81.0161C65.8963 81.1587 65.9643 81.3461 65.9567 81.5382Z" fill="white"/>
<path d="M68.1547 81.5452C68.1452 81.6842 68.095 81.8173 68.0105 81.928C67.9259 82.0388 67.8107 82.1222 67.6791 82.168C67.5475 82.2137 67.4053 82.2198 67.2703 82.1855C67.1353 82.1511 67.0133 82.0778 66.9196 81.9747C66.8259 81.8716 66.7645 81.7433 66.7431 81.6056C66.7218 81.4679 66.7414 81.327 66.7994 81.2004C66.8575 81.0737 66.9515 80.9669 67.0698 80.8932C67.188 80.8196 67.3253 80.7823 67.4646 80.786C67.6559 80.7976 67.8351 80.8835 67.964 81.0253C68.0929 81.1671 68.1614 81.3536 68.1547 81.5452Z" fill="white"/>
<path d="M70.3562 81.5555C70.3467 81.6938 70.2971 81.8263 70.2133 81.9368C70.1296 82.0472 70.0154 82.1307 69.8847 82.1771C69.7541 82.2235 69.6128 82.2306 69.4782 82.1977C69.3435 82.1648 69.2214 82.0932 69.1269 81.9918C69.0324 81.8904 68.9697 81.7636 68.9463 81.627C68.923 81.4903 68.9401 81.3499 68.9955 81.2228C69.051 81.0958 69.1424 80.9877 69.2584 80.912C69.3745 80.8362 69.5102 80.796 69.6488 80.7964C69.8431 80.8036 70.0267 80.8875 70.1593 81.0298C70.2919 81.1721 70.3627 81.3611 70.3562 81.5555Z" fill="white"/>
<path d="M72.5542 81.5659C72.561 81.6631 72.5477 81.7608 72.5151 81.8527C72.4826 81.9446 72.4314 82.0289 72.3649 82.1002C72.2984 82.1715 72.2179 82.2284 72.1285 82.2672C72.0391 82.3061 71.9426 82.3262 71.8451 82.3262C71.7476 82.3262 71.6511 82.3061 71.5617 82.2672C71.4722 82.2284 71.3918 82.1715 71.3253 82.1002C71.2588 82.0289 71.2076 81.9446 71.1751 81.8527C71.1425 81.7608 71.1292 81.6631 71.136 81.5659C71.1292 81.4686 71.1425 81.3709 71.1751 81.279C71.2076 81.1871 71.2588 81.1029 71.3253 81.0315C71.3918 80.9602 71.4722 80.9034 71.5617 80.8645C71.6511 80.8256 71.7476 80.8055 71.8451 80.8055C71.9426 80.8055 72.0391 80.8256 72.1285 80.8645C72.2179 80.9034 72.2984 80.9602 72.3649 81.0315C72.4314 81.1029 72.4826 81.1871 72.5151 81.279C72.5477 81.3709 72.561 81.4686 72.5542 81.5659Z" fill="white"/>
<path d="M74.7523 81.5763C74.7429 81.7146 74.6932 81.8471 74.6095 81.9575C74.5257 82.0679 74.4115 82.1515 74.2808 82.1978C74.1502 82.2442 74.0089 82.2514 73.8743 82.2184C73.7396 82.1855 73.6175 82.1139 73.5231 82.0125C73.4286 81.9111 73.3658 81.7843 73.3424 81.6477C73.3191 81.5111 73.3362 81.3706 73.3916 81.2436C73.4471 81.1165 73.5385 81.0085 73.6545 80.9327C73.7706 80.857 73.9063 80.8168 74.0449 80.8171C74.2393 80.8243 74.4228 80.9083 74.5554 81.0506C74.688 81.1928 74.7588 81.3819 74.7523 81.5763Z" fill="white"/>
<path d="M76.9503 81.5865C76.9407 81.7255 76.8906 81.8587 76.806 81.9694C76.7214 82.0801 76.6062 82.1636 76.4746 82.2093C76.343 82.2551 76.2009 82.2612 76.0658 82.2269C75.9308 82.1925 75.8089 82.1192 75.7151 82.0161C75.6214 81.913 75.56 81.7847 75.5387 81.647C75.5173 81.5093 75.5369 81.3684 75.595 81.2417C75.653 81.1151 75.747 81.0083 75.8653 80.9346C75.9836 80.861 76.1209 80.8237 76.2601 80.8274C76.4514 80.839 76.6306 80.9248 76.7596 81.0666C76.8885 81.2084 76.9569 81.395 76.9503 81.5865Z" fill="white"/>
</g>
<path d="M73.8276 31.7737C74.0673 31.6682 74.2706 31.4945 74.4123 31.2742C74.5541 31.0539 74.6279 30.7969 74.6246 30.535C74.6336 30.3647 74.6077 30.1944 74.5487 30.0345C74.4897 29.8745 74.3988 29.7283 74.2815 29.6046C74.1641 29.4809 74.0228 29.3824 73.8662 29.3151C73.7095 29.2478 73.5408 29.2131 73.3703 29.2131C73.1999 29.2131 73.0312 29.2478 72.8745 29.3151C72.7179 29.3824 72.5766 29.4809 72.4592 29.6046C72.3419 29.7283 72.2509 29.8745 72.1919 30.0345C72.1329 30.1944 72.1071 30.3647 72.1161 30.535C72.1108 30.7995 72.184 31.0596 72.3265 31.2826C72.469 31.5055 72.6743 31.6812 72.9166 31.7875C70.9843 32.0774 71.0705 34.1753 71.0705 34.1753L75.6391 34.196C75.6391 34.196 75.7461 32.0601 73.8276 31.7737Z" fill="#4CAF4F"/>
<path opacity="0.1" d="M73.8276 31.7737C74.0673 31.6682 74.2706 31.4945 74.4123 31.2742C74.5541 31.0539 74.6279 30.7969 74.6246 30.535C74.6336 30.3647 74.6077 30.1944 74.5487 30.0345C74.4897 29.8745 74.3988 29.7283 74.2815 29.6046C74.1641 29.4809 74.0228 29.3824 73.8662 29.3151C73.7095 29.2478 73.5408 29.2131 73.3703 29.2131C73.1999 29.2131 73.0312 29.2478 72.8745 29.3151C72.7179 29.3824 72.5766 29.4809 72.4592 29.6046C72.3419 29.7283 72.2509 29.8745 72.1919 30.0345C72.1329 30.1944 72.1071 30.3647 72.1161 30.535C72.1108 30.7995 72.184 31.0596 72.3265 31.2826C72.469 31.5055 72.6743 31.6812 72.9166 31.7875C70.9843 32.0774 71.0705 34.1753 71.0705 34.1753L75.6391 34.196C75.6391 34.196 75.7461 32.0601 73.8276 31.7737Z" fill="#060A03"/>
<path d="M81.2513 35.5491L64.9681 35.4752L64.9593 37.4213L81.2425 37.4952L81.2513 35.5491Z" fill="#4CAF4F"/>
<path opacity="0.2" d="M81.2513 35.5491L64.9681 35.4752L64.9593 37.4213L81.2425 37.4952L81.2513 35.5491Z" fill="white"/>
<path d="M21.3888 45.6348H21.2266L20.7573 45.6693C20.5034 45.6846 20.2508 45.718 20.0016 45.7694C19.8403 45.792 19.6802 45.8231 19.522 45.8625L18.9872 46.0109C18.0768 46.2902 17.218 46.7156 16.4441 47.2704C15.4216 48.0125 14.5679 48.9627 13.9389 50.0585C13.5693 50.6901 13.2751 51.363 13.0625 52.0633C12.8391 52.8244 12.7104 53.6101 12.6795 54.4028C12.6589 54.8191 12.6658 55.2364 12.7002 55.6519C12.7002 55.8624 12.7588 56.0729 12.7864 56.2868C12.8097 56.5025 12.85 56.7159 12.9072 56.9251C13.2175 58.3098 13.8471 59.6028 14.7457 60.7009C15.6444 61.7991 16.7872 62.672 18.0831 63.2501C19.021 63.6548 20.0263 63.8807 21.0472 63.9161C22.1016 63.9741 23.1571 63.8228 24.1527 63.4709L24.4564 63.3571H24.4978L24.5323 63.3778L28.8835 65.5862L28.7558 65.6966C28.29 64.2542 27.8414 62.8567 27.4066 61.5144V61.4627L27.4446 61.4247C28.5001 60.3616 29.2837 59.0596 29.7289 57.6291C30.1321 56.3213 30.2498 54.9422 30.0739 53.585C29.9176 52.3788 29.5297 51.2142 28.9318 50.1551C28.4164 49.2453 27.7515 48.4287 26.965 47.7397C26.3161 47.1943 25.5979 46.7371 24.829 46.3801C24.2473 46.1292 23.6415 45.9384 23.0209 45.8108L22.3308 45.6969L21.8305 45.6589L21.5268 45.6382H21.4233C21.4577 45.6344 21.4924 45.6344 21.5268 45.6382H21.8339L22.3343 45.6589L23.0244 45.759C23.6526 45.8773 24.2667 46.0612 24.8566 46.3077C25.6387 46.6604 26.3698 47.1165 27.0305 47.6637C27.8315 48.3497 28.5105 49.1664 29.0388 50.0792C29.6537 51.1497 30.0534 52.3301 30.2154 53.5539C30.4058 54.9321 30.2964 56.3351 29.8945 57.667C29.4464 59.1273 28.6507 60.457 27.5757 61.5421L27.5964 61.4523C28.0312 62.7946 28.4832 64.1921 28.9525 65.631L29.0181 65.8415L28.8214 65.7414L24.4702 63.5365H24.5461L24.2355 63.6504C23.2207 64.0075 22.1457 64.1622 21.0713 64.1059C20.0285 64.0661 19.0021 63.8321 18.0452 63.4157C16.2197 62.6339 14.7009 61.2752 13.7216 59.5476C13.2709 58.7498 12.9418 57.8891 12.745 56.9942C12.6912 56.7795 12.6508 56.5617 12.6243 56.342C12.5967 56.1246 12.5518 55.9107 12.5415 55.6967C12.4481 54.469 12.5778 53.2344 12.9245 52.0529C13.1424 51.343 13.4448 50.6618 13.8251 50.024C14.469 48.9183 15.3405 47.962 16.382 47.2186C17.1686 46.6624 18.0419 46.2403 18.9665 45.9695L19.5082 45.8315C19.6677 45.7945 19.8289 45.7657 19.9913 45.7452C20.2431 45.6986 20.498 45.6709 20.7539 45.6624L21.2266 45.6451C21.2804 45.6379 21.3346 45.6344 21.3888 45.6348Z" fill="#4CAF4F"/>
<path d="M23.3556 53.6816H22.7173L21.337 51.7423V50.469C21.337 50.469 20.3501 50.4069 20.4675 52.0736C20.5848 53.7402 20.4675 53.3158 20.4675 53.3158C20.4675 53.3158 18.373 53.3158 18.2004 53.5056C18.0279 53.6954 18.0175 55.7174 17.9934 56.8458C17.9802 57.1178 18.0582 57.3864 18.2151 57.6089C18.3721 57.8315 18.5988 57.9953 18.8595 58.0742C18.9325 58.0944 19.008 58.1049 19.0838 58.1052C19.6083 58.1052 22.2756 57.6808 22.2756 57.6808H23.3763L23.3556 53.6816Z" fill="#4CAF4F"/>
<path d="M25.181 53.34L24.7877 57.7015H23.6973V53.4297L25.181 53.34Z" fill="#4CAF4F"/>
<path d="M38.1863 142.134V139.184L32.8965 139.146L32.8517 143.608L33.1795 143.632C34.6391 143.725 40.6052 143.863 41.5851 143.559C42.6755 143.221 38.1863 142.134 38.1863 142.134Z" fill="#AB1752"/>
<path d="M41.7095 143.283C41.7095 143.332 39.7288 143.373 37.2892 143.373C34.8497 143.373 32.869 143.332 32.869 143.283C32.869 143.235 34.8497 143.194 37.2892 143.194C39.7288 143.194 41.7095 143.235 41.7095 143.283Z" fill="#263238"/>
<path d="M38.2795 142.738C38.2346 142.714 38.2795 142.559 38.3865 142.393C38.4934 142.227 38.6383 142.158 38.6729 142.193C38.7074 142.227 38.6349 142.359 38.5314 142.5C38.4279 142.642 38.3243 142.762 38.2795 142.738Z" fill="#263238"/>
<path d="M38.6177 142.931C38.5693 142.931 38.5935 142.738 38.697 142.555C38.8005 142.372 38.9386 142.262 38.9765 142.29C39.0145 142.317 38.9524 142.472 38.8557 142.635C38.7591 142.797 38.6625 142.949 38.6177 142.931Z" fill="#263238"/>
<path d="M34.4632 143.27C34.4424 143.27 34.3631 143.207 34.2492 143.076C34.1102 142.908 33.9554 142.753 33.7868 142.614C33.6211 142.482 33.4236 142.395 33.214 142.362C33.0519 142.341 32.9483 142.362 32.938 142.341C32.9276 142.321 33.0277 142.248 33.2175 142.234C33.4679 142.229 33.7123 142.312 33.9076 142.469C34.0906 142.618 34.245 142.799 34.3631 143.004C34.4424 143.156 34.4839 143.256 34.4632 143.27Z" fill="#263238"/>
<path d="M38.2968 142.183C38.3209 142.224 38.2312 142.328 38.0794 142.383C37.9276 142.438 37.793 142.417 37.7861 142.383C37.7792 142.348 37.8861 142.276 38.0173 142.227C38.1484 142.179 38.2692 142.141 38.2968 142.183Z" fill="#263238"/>
<path d="M38.214 141.896C38.214 141.948 38.0759 141.989 37.8965 141.993C37.7171 141.996 37.5756 141.955 37.579 141.907C37.5825 141.858 37.724 141.813 37.8965 141.81C38.069 141.806 38.207 141.848 38.214 141.896Z" fill="#263238"/>
<path d="M51.2123 142.134V139.184L45.9225 139.146L45.8777 143.563L46.2055 143.587C47.6651 143.68 53.6346 143.863 54.6112 143.559C55.7015 143.221 51.2123 142.134 51.2123 142.134Z" fill="#9D1847"/>
<path d="M54.7354 143.29C54.7354 143.339 52.7582 143.38 50.3152 143.38C47.8722 143.38 45.8984 143.339 45.8984 143.29C45.8984 143.242 47.8756 143.201 50.3152 143.201C52.7548 143.201 54.7354 143.242 54.7354 143.29Z" fill="#263238"/>
<path d="M51.3055 142.738C51.2641 142.714 51.3055 142.559 51.4124 142.393C51.5194 142.227 51.6643 142.158 51.6988 142.193C51.7334 142.227 51.6609 142.359 51.5574 142.5C51.4539 142.642 51.3503 142.762 51.3055 142.738Z" fill="#263238"/>
<path d="M51.6437 142.931C51.5989 142.931 51.6196 142.738 51.7265 142.555C51.8335 142.372 51.9681 142.262 52.006 142.29C52.044 142.317 51.9784 142.472 51.8818 142.635C51.7852 142.797 51.692 142.949 51.6437 142.931Z" fill="#263238"/>
<path d="M47.4892 143.27C47.4684 143.27 47.3925 143.207 47.2752 143.076C47.1362 142.908 46.9814 142.753 46.8128 142.614C46.6471 142.482 46.4496 142.395 46.24 142.362C46.0813 142.341 45.9743 142.362 45.964 142.341C45.9536 142.321 46.0537 142.248 46.2435 142.234C46.4939 142.229 46.7383 142.312 46.9336 142.469C47.1176 142.617 47.2721 142.799 47.3891 143.004C47.4684 143.156 47.5099 143.256 47.4892 143.27Z" fill="#263238"/>
<path d="M51.3228 142.183C51.3469 142.224 51.2572 142.328 51.1054 142.383C50.9536 142.438 50.819 142.417 50.8121 142.383C50.8052 142.348 50.9122 142.276 51.0433 142.227C51.1744 142.179 51.2952 142.141 51.3228 142.183Z" fill="#263238"/>
<path d="M51.2469 141.896C51.2469 141.948 51.1089 141.989 50.9294 141.993C50.75 141.996 50.612 141.955 50.6154 141.907C50.6189 141.858 50.7569 141.813 50.9294 141.81C51.102 141.806 51.2469 141.848 51.2469 141.896Z" fill="#263238"/>
<path d="M70.7013 54.5236C70.5633 54.3821 70.2217 54.4511 70.2217 54.4511C70.256 54.2525 70.256 54.0494 70.2217 53.8507C70.1596 53.6575 69.7248 53.6955 69.7248 53.6955C69.7048 53.5327 69.7048 53.3682 69.7248 53.2055C69.7283 53.1694 69.7205 53.1331 69.7026 53.1016C69.6847 53.0702 69.6575 53.045 69.6248 53.0295C69.419 52.9456 69.1981 52.9057 68.976 52.9122C68.7103 52.7224 69.7869 51.2145 70.1872 50.7314C70.5875 50.2483 70.515 49.8722 70.1596 49.8722C69.9146 49.8722 68.6586 51.3214 68.2721 51.808C67.8856 52.2945 66.8608 53.6471 66.8263 52.5671C66.7918 51.4871 66.357 50.6727 66.0844 50.5347C65.8118 50.3967 65.522 50.721 65.6704 51.0212C65.8007 51.3623 65.882 51.7201 65.9119 52.084C65.9494 52.3739 65.9365 52.6681 65.8739 52.9536C65.7595 53.4848 65.6038 54.0063 65.4081 54.5132H65.3805C65.3805 54.5132 57.8513 61.7353 57.3061 62.2495C56.8196 62.7119 47.0337 61.7008 45.0703 61.4938C44.4031 61.3962 43.7294 61.35 43.0551 61.3558C42.2028 61.3937 42.051 61.5145 41.2022 61.5249C39.0585 61.5487 36.9197 61.7367 34.8048 62.0873C33.8471 62.2501 32.9525 62.6728 32.2187 63.3093C31.4848 63.9458 30.9399 64.7716 30.6433 65.6966C28.6661 71.8732 24.1873 86.4934 23.3971 94.7058C22.8 95.7886 22.2609 96.9024 21.7822 98.0426C21.2266 99.5539 21.3612 99.6057 21.5476 99.6402C22.0513 99.7333 22.6241 97.0212 22.8381 97.6768C23.052 98.3324 21.7511 100.91 22.2791 100.986C22.9692 101.083 23.5178 98.2254 23.5834 97.9977C23.649 97.77 23.9906 97.8424 23.9285 98.0564C23.8284 98.36 22.8588 101.579 23.5351 101.683C23.9078 101.738 23.9492 101.058 23.9492 101.058C23.9492 101.058 24.6393 97.977 24.9533 98.0391C25.2673 98.1012 24.9326 99.9197 24.7739 100.527C24.6151 101.134 24.836 101.441 25.1603 101.293C25.3812 101.19 25.9091 99.3434 26.054 98.743C26.199 98.1426 26.5613 96.4794 27.0478 97.4422C27.5343 98.4049 28.2728 98.9639 28.5764 98.9777C28.6448 98.9698 28.7093 98.9416 28.7616 98.8967C28.8139 98.8519 28.8515 98.7924 28.8697 98.726C28.8879 98.6596 28.8858 98.5892 28.8637 98.524C28.8415 98.4587 28.8004 98.4016 28.7455 98.36C28.4843 98.105 28.2602 97.8146 28.0795 97.4974C27.9186 97.2503 27.8018 96.977 27.7345 96.6899C27.5954 96.1175 27.5145 95.5326 27.4929 94.9439L27.4377 94.5989C28.2107 90.7721 30.4363 79.5404 33.6488 72.3666L34.9669 75.0788L35.5397 77.0871L32.027 85.7584L47.0095 85.5617L44.7735 76.9559L47.4892 67.9844C50.4256 68.0499 57.9652 68.1604 59.2212 67.591C60.8016 66.9009 68.976 56.5767 68.976 56.5767C69.5089 56.1627 70.0192 55.7203 70.5047 55.2517C70.5047 55.2517 71.0015 54.8342 70.7013 54.5236Z" fill="#FFBE9D"/>
<path d="M31.368 79.3507C31.8027 77.867 34.0353 70.531 34.0353 70.531C34.0353 70.531 35.1326 76.5109 34.8427 77.2321C34.5761 77.8494 34.2611 78.4448 33.9007 79.0126C31.368 82.8669 31.6992 84.7958 31.6992 84.7958L47.0026 84.3299C47.0371 82.1906 45.7708 77.2148 45.5085 76.4212C45.2463 75.6275 46.1193 73.0292 46.1193 73.0292C46.1193 73.0292 47.8446 71.2729 47.7825 70.3688C47.7497 69.5567 47.6493 68.7488 47.4823 67.9534L56.7989 68.2985L56.5056 61.9839L43.1242 60.645C42.6583 61.9597 38.4451 61.3144 38.4451 61.3144C33.8973 61.4663 33.6143 62.3013 31.7234 63.7713C29.8325 65.2412 26.7028 77.8566 26.7028 77.8566L31.368 79.3507Z" fill="#BB14CA"/>
<path d="M40.4155 77.8565C40.1503 77.9039 39.8802 77.9178 39.6115 77.8979C39.1112 77.8979 38.4245 77.8634 37.6688 77.7875C36.9131 77.7116 36.2299 77.6046 35.7434 77.508C35.4751 77.4734 35.212 77.4062 34.9601 77.3079C35.2299 77.308 35.499 77.3334 35.7641 77.3838C36.2541 77.4459 36.9338 77.5321 37.6861 77.6081C38.4383 77.684 39.1215 77.7357 39.6149 77.7702C39.8839 77.7736 40.152 77.8025 40.4155 77.8565Z" fill="#263238"/>
<path d="M41.4644 76.5557C41.1991 76.6856 40.9186 76.7818 40.6294 76.8421C39.2527 77.2038 37.8324 77.3722 36.4093 77.3424C36.1148 77.352 35.8203 77.3242 35.5328 77.2596C35.8235 77.2229 36.1164 77.2079 36.4093 77.2147C36.951 77.1975 37.6964 77.1595 38.5176 77.0629C39.3388 76.9663 40.0704 76.8283 40.588 76.7178C40.8755 76.6411 41.1685 76.5868 41.4644 76.5557Z" fill="#263238"/>
<path d="M46.6127 70.7518C46.6057 71.0149 46.5698 71.2764 46.5057 71.5317C46.416 72.0113 46.278 72.6669 46.102 73.3846C45.926 74.1024 45.7569 74.7649 45.6051 75.2135C45.544 75.4702 45.4537 75.7191 45.3359 75.9553C45.3552 75.6931 45.4038 75.4338 45.4809 75.1824C45.612 74.6441 45.7604 74.023 45.926 73.3432C46.0916 72.6635 46.2503 72.0424 46.3815 71.5041C46.4282 71.245 46.5058 70.9924 46.6127 70.7518Z" fill="#263238"/>
<path d="M31.5301 78.4708C30.7318 78.3475 29.944 78.1641 29.1734 77.9221C28.3859 77.738 27.6131 77.4958 26.8615 77.1975C27.6593 77.3228 28.447 77.5062 29.2182 77.7462C30.0059 77.9296 30.7787 78.1718 31.5301 78.4708Z" fill="#263238"/>
<path d="M47.6478 67.8774C47.5177 67.8998 47.3846 67.8998 47.2545 67.8774C46.894 67.8405 46.5401 67.7557 46.202 67.6255C45.6375 67.4134 45.1237 67.0856 44.6934 66.663C44.2632 66.2405 43.9261 65.7327 43.7038 65.1722C43.4581 64.5555 43.3532 63.8918 43.3967 63.2295C43.4121 62.6831 43.5755 62.1512 43.8694 61.6905C44.0762 61.3801 44.385 61.1518 44.7424 61.0452C44.8379 61.0189 44.9367 61.0061 45.0357 61.0073C45.1047 61.0073 45.1392 61.0073 45.1392 61.0073C45.1392 61.0073 44.9943 61.0073 44.7631 61.1004C44.4352 61.2216 44.1572 61.4487 43.9729 61.7457C43.5037 62.4841 43.3725 63.8333 43.8729 65.0928C44.1057 65.6866 44.4703 66.2199 44.9391 66.6525C45.3232 67.0064 45.7657 67.2912 46.2469 67.4944C46.6985 67.6729 47.1683 67.8013 47.6478 67.8774Z" fill="#263238"/>
<path d="M55.6913 68.1741C55.6049 67.116 55.5773 66.0539 55.6085 64.9927C55.5814 63.9324 55.6137 62.8714 55.7051 61.8147C55.7914 62.8717 55.8191 63.9326 55.7879 64.9927C55.8169 66.0542 55.7846 67.1164 55.6913 68.1741Z" fill="#263238"/>
<path d="M43.0344 61.0314C43.0723 60.2619 43.1517 59.3924 43.1517 59.3924C43.1517 59.3924 45.0564 59.1819 45.1703 57.2151C45.2842 55.2482 45.1703 50.7107 45.1703 50.7107L41.7197 48.944L37.8895 51.9563L38.4796 61.7905L41.9923 62.0148C42.2608 62.0223 42.5213 61.9229 42.7166 61.7386C42.912 61.5542 43.0263 61.2999 43.0344 61.0314Z" fill="#FFBE9D"/>
<path d="M43.376 55.6589C43.376 55.6589 43.376 55.6968 43.345 55.7417C43.3193 55.7742 43.2861 55.8 43.2482 55.8169C43.2103 55.8337 43.1689 55.8411 43.1276 55.8383C42.9068 55.8383 42.6928 55.583 42.6169 55.2862C42.5808 55.1424 42.5808 54.9918 42.6169 54.848C42.624 54.7852 42.6466 54.7252 42.6828 54.6734C42.7189 54.6215 42.7675 54.5796 42.8239 54.5512C42.8703 54.5321 42.9225 54.5321 42.9689 54.5512C43.0033 54.5683 43.0311 54.5962 43.0482 54.6306C43.0724 54.6893 43.0482 54.7272 43.0482 54.7238C43.0482 54.7203 43.0482 54.6893 43.0137 54.6548C42.9957 54.63 42.9692 54.6129 42.9392 54.6065C42.9093 54.6001 42.8781 54.605 42.8515 54.6203C42.8092 54.6458 42.774 54.6817 42.7493 54.7246C42.7246 54.7674 42.7111 54.8158 42.7101 54.8652C42.681 54.9936 42.681 55.1268 42.7101 55.2552C42.7791 55.5243 42.9654 55.7417 43.131 55.7624C43.1634 55.7668 43.1964 55.7645 43.2279 55.7556C43.2593 55.7467 43.2886 55.7314 43.3139 55.7106C43.3553 55.683 43.3691 55.6554 43.376 55.6589Z" fill="#EB996E"/>
<path d="M46.354 49.6479C46.0883 48.7439 45.1255 48.2953 44.2491 48.0468C42.9137 47.6673 41.4713 47.5016 40.167 47.9813C38.8627 48.4609 37.2961 49.3029 37.2961 50.7418C36.5266 50.6797 36.085 51.3525 35.7813 52.1876C35.5872 52.6963 35.4708 53.2314 35.4362 53.7748C35.3396 55.6589 34.8117 58.2606 33.5902 59.6409C32.9001 60.4103 31.9442 60.9417 31.5509 61.901C31.2058 62.7326 31.3852 63.7195 31.0643 64.5614C30.7779 65.3033 30.1465 65.8312 29.6841 66.4765C29.213 67.2085 28.9358 68.0483 28.8785 68.9168C28.8211 69.7854 28.9855 70.6543 29.3563 71.4419C29.7297 72.2093 30.2554 72.8926 30.9015 73.4503C31.5475 74.0079 32.3003 74.4282 33.114 74.6855C34.7258 75.1758 36.4446 75.1926 38.0656 74.7338C39.2822 74.4429 40.4171 73.8801 41.3851 73.0878C42.3755 72.279 43.0558 71.1526 43.3105 69.8995C43.5555 68.4916 43.1621 67.0597 42.8688 65.6587C41.951 61.2316 42.2132 61.0004 43.3726 56.8907C43.4002 56.8183 43.414 56.7424 43.4347 56.6699C43.4554 56.5974 43.4658 56.5629 43.4796 56.5077C43.5125 56.3453 43.5299 56.18 43.5314 56.0143C43.362 56.0773 43.1782 56.0906 43.0016 56.0527C42.8249 56.0148 42.6627 55.9272 42.5341 55.8003C42.4052 55.665 42.3154 55.4974 42.274 55.3151C42.2327 55.1329 42.2415 54.9428 42.2995 54.7652C42.3809 54.5709 42.5022 54.3958 42.6556 54.2514C42.8089 54.1069 42.9909 53.9963 43.1897 53.9267C43.5728 53.7679 43.9834 53.6851 44.3595 53.5091C45.1566 53.1296 45.7087 52.3428 46.0848 51.5181C46.394 50.9466 46.4895 50.2835 46.354 49.6479Z" fill="#263238"/>
<path d="M43.514 55.7521C43.587 55.8598 43.6472 55.9756 43.6935 56.0971C43.797 56.3145 43.935 56.6216 44.0868 56.977L44.1144 57.0426H44.042L43.6969 57.0737C43.4588 57.0737 43.2587 57.1185 43.0241 57.1151C43.0036 57.1105 42.9847 57.1008 42.969 57.0869C42.9533 57.073 42.9414 57.0554 42.9343 57.0357C42.9241 57.0043 42.9241 56.9705 42.9343 56.9391C42.9423 56.8926 42.9527 56.8465 42.9654 56.8011L43.0275 56.5561C43.0587 56.3926 43.1073 56.233 43.1724 56.0799C43.166 56.2465 43.1417 56.4119 43.1 56.5733L43.0517 56.8183C43.0344 56.9011 43.0034 57.0288 43.0517 57.0184C43.2242 57.0184 43.4692 56.9805 43.6969 56.9667L44.042 56.9356L43.9971 57.0115C43.8488 56.6665 43.7245 56.3421 43.6521 56.1178C43.5885 56.0033 43.542 55.8801 43.514 55.7521Z" fill="#4CAF4F"/>
<path d="M31.6992 84.7957L47.0026 84.3298L53.6623 110.327L52.4373 140.147H44.3456L45.336 110.962L39.4182 92.8632L40.3291 141.303L32.1512 141.423L31.292 95.8928C31.2541 94.6264 30.84 91.7728 30.9953 90.5168L31.6992 84.7957Z" fill="#263238"/>
<path d="M41.454 93.2324C41.2036 93.2482 40.9521 93.2331 40.7053 93.1875C40.2429 93.1323 39.6114 93.0357 38.9179 92.8977C38.2243 92.7597 37.6032 92.6009 37.1546 92.4733C36.9148 92.4206 36.6828 92.337 36.4645 92.2248C36.4645 92.1731 37.5894 92.4422 38.9696 92.7217C40.3499 93.0012 41.4609 93.1806 41.454 93.2324Z" fill="#455A64"/>
<path d="M52.3545 138.511C52.3545 138.56 50.5223 138.601 48.2621 138.601C46.002 138.601 44.1663 138.56 44.1663 138.511C44.1663 138.463 45.9985 138.422 48.2621 138.422C50.5257 138.422 52.3545 138.459 52.3545 138.511Z" fill="#455A64"/>
<path d="M40.2567 140.043C40.2567 140.095 38.4762 140.133 36.2816 140.133C34.087 140.133 32.3099 140.095 32.3099 140.043C32.3099 139.991 34.0904 139.953 36.2816 139.953C38.4727 139.953 40.2567 139.995 40.2567 140.043Z" fill="#455A64"/>
<path d="M39.2009 139.919C39.1526 139.919 38.9386 129.336 38.7212 116.282C38.5039 103.229 38.3762 92.6389 38.421 92.6389C38.4659 92.6389 38.6867 103.218 38.9007 116.279C39.1146 129.339 39.2526 139.919 39.2009 139.919Z" fill="#455A64"/>
<path d="M51.2675 138.511C51.2637 138.464 51.2637 138.417 51.2675 138.37V137.956C51.2675 137.583 51.2951 137.048 51.3158 136.368C51.3641 134.988 51.4331 132.983 51.5194 130.526C51.7057 125.585 51.968 118.774 52.2544 111.255C52.2544 111.182 52.2544 111.113 52.2544 111.051V111.075C50.4428 103.829 48.8038 97.2523 47.6133 92.4939L46.2331 86.866C46.0744 86.2069 45.9536 85.6928 45.8673 85.3339C45.8259 85.1649 45.7983 85.0337 45.7742 84.9337C45.7607 84.8888 45.7526 84.8425 45.75 84.7957C45.7679 84.8391 45.7818 84.8842 45.7914 84.9302C45.819 85.0268 45.8535 85.158 45.9018 85.3236C45.995 85.6687 46.1296 86.1931 46.3021 86.8488C46.6472 88.1807 47.1337 90.0992 47.741 92.4629C48.9418 97.2178 50.5981 103.777 52.4338 111.034V111.058C52.4338 111.12 52.4338 111.193 52.4338 111.262C52.1267 118.781 51.8472 125.589 51.6436 130.53C51.5367 132.99 51.4469 134.981 51.3848 136.368C51.3503 137.058 51.3227 137.583 51.3055 137.956C51.3055 138.132 51.2848 138.27 51.2813 138.37C51.2818 138.417 51.2772 138.465 51.2675 138.511Z" fill="#455A64"/>
<path d="M48.6279 110.444C48.0467 110.635 47.4479 110.768 46.8405 110.841C46.0952 110.968 45.4602 111.058 45.1738 111.072V111.003C45.267 111.031 45.3153 111.048 45.3153 111.062C45.3153 111.075 45.2567 111.062 45.16 111.062H44.953L45.16 111C45.4292 110.92 46.0641 110.789 46.8094 110.654C47.4072 110.525 48.0163 110.454 48.6279 110.444Z" fill="#455A64"/>
<path d="M48.4863 111.434C47.9481 111.459 47.4088 111.435 46.8749 111.362C46.3359 111.351 45.799 111.292 45.2704 111.186C46.3488 111.098 47.4343 111.182 48.4863 111.434Z" fill="#455A64"/>
<path opacity="0.2" d="M31.6337 85.3443C31.8149 85.577 32.0432 85.7689 32.3036 85.9075C32.564 86.046 32.8507 86.1281 33.145 86.1483C33.7614 86.2213 34.3848 86.2097 34.998 86.1138C38.9489 85.6756 43.1345 85.2718 47.0026 84.3298C41.9958 84.6093 36.706 84.5162 31.6992 84.7957L31.6475 85.2235" fill="black"/>
<g opacity="0.2">
<path d="M36.7922 92.4009L39.6148 103.353L39.4181 92.8633L36.7922 92.4009Z" fill="black"/>
</g>
</svg>
