<svg width="38" height="38" viewBox="0 0 38 38" fill="none" xmlns="http://www.w3.org/2000/svg">
<path d="M15.8256 5.61618C17.2546 3.17544 20.7825 3.17544 22.2115 5.61617L22.6489 6.3632C23.4095 7.66225 24.8813 8.37102 26.3711 8.15572L27.2279 8.03191C30.0271 7.62738 32.2267 10.3856 31.2095 13.0247L30.8981 13.8324C30.3567 15.237 30.7202 16.8296 31.8174 17.8601L32.4484 18.4528C34.5099 20.3891 33.7249 23.8286 31.0274 24.6786L30.2017 24.9388C28.766 25.3913 27.7475 26.6684 27.6259 28.1688L27.556 29.0316C27.3275 31.8507 24.1489 33.3814 21.8024 31.8024L21.0842 31.3191C19.8353 30.4787 18.2018 30.4787 16.9529 31.3191L16.2347 31.8024C13.8882 33.3814 10.7096 31.8507 10.4811 29.0316L10.4112 28.1688C10.2896 26.6684 9.27109 25.3913 7.83537 24.9388L7.00974 24.6786C4.31221 23.8286 3.52717 20.3891 5.58873 18.4528L6.21971 17.8601C7.31694 16.8296 7.68044 15.237 7.13901 13.8324L6.82766 13.0247C5.81039 10.3856 8.01002 7.62738 10.8092 8.03191L11.666 8.15572C13.1558 8.37102 14.6276 7.66226 15.3882 6.36321L15.8256 5.61618Z" fill="url(#paint0_linear_68_5782)"/>
<path fillRule="evenodd" clipRule="evenodd" d="M24.4639 15.5994L18.4187 23.158L13.6699 19.2002L14.5659 18.125L18.2171 21.1672L23.3719 14.7258L24.4639 15.5994Z" fill="white"/>
<defs>
<linearGradient id="paint0_linear_68_5782" x1="19.0186" y1="0.162598" x2="19.0186" y2="37.1626" gradientUnits="userSpaceOnUse">
<stop stop-color="#51619C"/>
<stop offset="1" stop-color="#1D2953"/>
</linearGradient>
</defs>
</svg>
